<svg width="32" height="32" viewBox="0 0 32 32" fill="none" xmlns="http://www.w3.org/2000/svg">
<g clip-path="url(#clip0)">
<path d="M20.208 25.9092L21.056 24.4638C21.056 24.4638 19.1307 25.2518 15.9093 25.2518C12.6853 25.2518 10.7893 24.4945 10.7893 24.4945L11.7373 26.0718L12.0733 31.0438C12.0733 31.5812 13.8253 32.0012 15.988 32.0012C18.152 32.0012 19.9053 31.5825 19.9053 31.0438L20.2107 25.9305V25.9092H20.208ZM21.028 16.5145C20.0027 16.5758 19.4907 17.7185 18.976 18.9212C18.7853 19.3612 18.136 21.2372 17.712 21.0052C17.288 20.7745 18.2627 19.2332 18.5373 18.3158C18.2213 18.5478 17.064 19.4478 16.7653 18.6025C16.288 19.0212 15.26 19.2425 15.376 18.1638C15.1213 18.6238 14.548 19.2612 13.8573 18.9825C12.96 18.6425 14.384 15.7678 14.7373 15.9065C15.092 16.0678 14.6667 16.7065 14.556 16.9652C14.308 17.5238 14.0253 18.2425 14.216 18.3825C14.536 18.6412 15.4213 17.4452 15.4413 17.4238C15.6067 17.2038 16.08 15.7852 16.4587 15.9478C16.8387 16.1265 15.5107 18.0025 16.0053 18.3825C16.1067 18.4625 16.516 18.3425 16.764 18.0638C16.924 17.9038 16.868 17.5038 17.4027 16.2265C17.9413 14.9478 18.4213 13.3518 18.788 13.4718C19.1547 13.5918 18.8533 14.4092 18.72 14.7292C18.1013 16.1665 17.0293 18.5212 17.5333 18.3425C18.032 18.1625 18.292 18.1625 18.7907 17.5838C19.2893 17.0052 19.2507 16.0478 19.5893 16.0678C19.9093 16.0865 19.8693 16.4065 19.7893 16.6252C20.1093 16.2652 21.3253 15.4678 21.6067 16.2465C21.9453 17.1638 19.868 18.5025 20.388 18.4225C20.888 18.3625 21.7053 17.8438 22.0653 17.3652L23.024 8.69851C23.024 8.69851 22.0453 9.49851 15.876 9.49851C9.70667 9.49851 8.83067 8.71984 8.83067 8.71984L9.648 16.6265C10.088 15.3892 11.1253 12.8745 12.744 12.9732C13.4827 13.0132 14.4813 14.4518 13.6213 14.4918C13.2613 14.5118 13.2213 13.7732 12.8027 13.6732C12.484 13.6118 12.064 13.8532 11.7853 14.1332C11.2467 14.6718 10.0467 16.8078 10.2067 17.8678C10.4067 19.2252 12.0827 17.4065 12.3627 16.8678C12.5613 16.4905 12.7013 15.3505 13.12 15.4705C13.56 15.5905 13.0813 16.7692 12.76 17.7865C12.4 18.9452 12.2213 20.1612 11.784 20.0212C11.344 19.8825 12.0627 18.3852 12.0213 18.1252C11.604 18.5238 10.844 19.4852 9.84667 19.0038L10.3453 23.9358C10.3453 23.9358 11.704 24.9932 15.776 24.9932C19.848 24.9932 21.2667 23.9358 21.2667 23.9358L21.9053 18.2252C21.3867 18.7452 19.7493 19.6425 19.6493 18.6252C19.5707 17.8065 21.4267 16.6278 20.948 16.6065L21.028 16.5145V16.5145ZM23.128 0.891839L19.5827 4.62517L18.9347 7.15984C21.4427 7.31984 23.1867 7.67451 23.1867 8.08517C23.1867 8.64384 19.968 9.09451 15.9987 9.09451C12.0293 9.09451 8.812 8.63717 8.812 8.07717C8.812 7.51851 12.0307 7.05851 16 7.05851C16.564 7.05851 17.1253 7.05851 17.6853 7.07984L18.4333 4.04517L22.2 0.051839C22.2907 -0.068161 22.5733 0.031839 22.832 0.251839C23.0907 0.450506 23.2307 0.710506 23.1507 0.830506V0.870506L23.128 0.891839ZM18.016 8.61851C18.016 8.61851 17.3187 8.61851 17.2027 8.51184C17.1733 8.47851 17.1547 8.43451 17.1547 8.39184C17.1547 8.31451 17.2067 8.27051 17.2747 8.24517L17.3333 8.34517C17.3053 8.35317 17.2947 8.36517 17.2893 8.37584C17.2893 8.43051 17.708 8.46784 18.0293 8.46384C18.348 8.45984 18.7373 8.43317 18.74 8.37851C18.74 8.36251 18.7093 8.34784 18.6587 8.33451L18.7187 8.23851C18.8027 8.26517 18.8747 8.31584 18.8747 8.39984C18.8747 8.54651 18.6867 8.57051 18.568 8.58784C18.4253 8.60784 18.0187 8.61851 18.0187 8.61851H18.016V8.61851Z" fill="#FF4444"/>
</g>
<defs>
<clipPath id="clip0">
<rect width="32" height="32" fill="white"/>
</clipPath>
</defs>
</svg>
