<svg width="21" height="12" viewBox="0 0 21 12" fill="none" xmlns="http://www.w3.org/2000/svg">
<path d="M15.61 9.4C16.006 9.4 16.3745 9.334 16.7155 9.202C17.0675 9.07 17.37 8.8775 17.623 8.6245C17.887 8.3605 18.096 8.0305 18.25 7.6345C18.404 7.2385 18.481 6.7765 18.481 6.2485C18.481 5.7205 18.404 5.2585 18.25 4.8625C18.096 4.4665 17.887 4.142 17.623 3.889C17.37 3.625 17.0675 3.427 16.7155 3.295C16.3745 3.163 16.006 3.097 15.61 3.097C15.214 3.097 14.8455 3.1795 14.5045 3.3445C14.1635 3.5095 13.839 3.7405 13.531 4.0375C13.234 4.3235 12.9425 4.659 12.6565 5.044C12.3815 5.418 12.1065 5.8195 11.8315 6.2485C12.1065 6.6775 12.3815 7.0845 12.6565 7.4695C12.9425 7.8435 13.234 8.179 13.531 8.476C13.839 8.762 14.1635 8.9875 14.5045 9.1525C14.8455 9.3175 15.214 9.4 15.61 9.4ZM5.37997 9.4C5.77597 9.4 6.14447 9.3175 6.48547 9.1525C6.82647 8.9875 7.14547 8.762 7.44247 8.476C7.75047 8.179 8.04197 7.8435 8.31697 7.4695C8.60297 7.0845 8.88347 6.6775 9.15847 6.2485C8.88347 5.8195 8.60297 5.418 8.31697 5.044C8.04197 4.659 7.75047 4.3235 7.44247 4.0375C7.14547 3.7405 6.82647 3.5095 6.48547 3.3445C6.14447 3.1795 5.77597 3.097 5.37997 3.097C4.98397 3.097 4.60997 3.163 4.25797 3.295C3.91697 3.427 3.61447 3.625 3.35047 3.889C3.08647 4.142 2.87747 4.4665 2.72347 4.8625C2.56947 5.2585 2.49247 5.7205 2.49247 6.2485C2.49247 6.7765 2.56947 7.2385 2.72347 7.6345C2.87747 8.0305 3.08647 8.3605 3.35047 8.6245C3.61447 8.8775 3.91697 9.07 4.25797 9.202C4.60997 9.334 4.98397 9.4 5.37997 9.4ZM15.7255 0.687999C16.4075 0.687999 17.0565 0.825499 17.6725 1.1005C18.2995 1.3645 18.844 1.7385 19.306 2.2225C19.779 2.7065 20.153 3.2895 20.428 3.9715C20.703 4.6535 20.8405 5.4125 20.8405 6.2485C20.8405 7.0845 20.703 7.8435 20.428 8.5255C20.153 9.2075 19.779 9.796 19.306 10.291C18.844 10.775 18.2995 11.149 17.6725 11.413C17.0565 11.677 16.4075 11.809 15.7255 11.809C15.1095 11.809 14.5485 11.7155 14.0425 11.5285C13.5475 11.3415 13.091 11.0885 12.673 10.7695C12.255 10.4395 11.8645 10.0655 11.5015 9.6475C11.1495 9.2295 10.814 8.7895 10.495 8.3275C10.176 8.7895 9.83497 9.2295 9.47197 9.6475C9.11997 10.0655 8.73497 10.4395 8.31697 10.7695C7.89897 11.0885 7.43697 11.3415 6.93097 11.5285C6.42497 11.7155 5.86947 11.809 5.26447 11.809C4.58247 11.809 3.93347 11.677 3.31747 11.413C2.70147 11.149 2.15697 10.775 1.68397 10.291C1.21097 9.796 0.836973 9.2075 0.561973 8.5255C0.286973 7.8435 0.149473 7.0845 0.149473 6.2485C0.149473 5.4125 0.286973 4.6535 0.561973 3.9715C0.836973 3.2895 1.21097 2.7065 1.68397 2.2225C2.15697 1.7385 2.70147 1.3645 3.31747 1.1005C3.93347 0.825499 4.58247 0.687999 5.26447 0.687999C5.86947 0.687999 6.42497 0.781499 6.93097 0.968499C7.43697 1.1555 7.89897 1.414 8.31697 1.744C8.73497 2.063 9.11997 2.4315 9.47197 2.8495C9.83497 3.2675 10.176 3.7075 10.495 4.1695C10.814 3.7075 11.1495 3.2675 11.5015 2.8495C11.8645 2.4315 12.255 2.063 12.673 1.744C13.091 1.414 13.5475 1.1555 14.0425 0.968499C14.5485 0.781499 15.1095 0.687999 15.7255 0.687999Z" fill="#C4C4C4"/>
</svg>
