<svg width="69" height="21" viewBox="0 0 69 21" fill="none" xmlns="http://www.w3.org/2000/svg">
<path d="M64.3597 0.300049H60.022C58.7105 0.300049 57.7018 0.700049 57.0965 2.00005L48.8246 20.7H54.6755C54.6755 20.7 55.6842 18.2001 55.886 17.6C56.4913 17.6 62.2413 17.6 63.0483 17.6C63.25 18.3001 63.7544 20.6 63.7544 20.6H69L64.3597 0.300049ZM57.5 13.4C58.0044 12.2 59.7193 7.70005 59.7193 7.70005C59.7193 7.80005 60.2237 6.50005 60.4255 5.80005L60.829 7.60005C60.829 7.60005 61.9386 12.5 62.1404 13.5H57.5V13.4Z" fill="#3362AB"/>
<path d="M49.2281 14C49.2281 18.2 45.3947 21 39.443 21C36.9211 21 34.5 20.5 33.1886 19.9L33.9956 15.3L34.7018 15.6C36.5175 16.4 37.7281 16.7 39.9474 16.7C41.5614 16.7 43.2763 16.1 43.2763 14.7C43.2763 13.8 42.5702 13.2 40.3509 12.2C38.2325 11.2 35.4079 9.6 35.4079 6.7C35.4079 2.7 39.3421 0 44.8904 0C47.0088 0 48.8246 0.4 49.9342 0.9L49.1272 5.3L48.7237 4.9C47.7149 4.5 46.4035 4.1 44.4868 4.1C42.3684 4.2 41.3596 5.1 41.3596 5.9C41.3596 6.8 42.5702 7.5 44.4868 8.4C47.7149 9.9 49.2281 11.6 49.2281 14Z" fill="#3362AB"/>
<path d="M0 0.500098L0.100877 0.100098H8.77632C9.98684 0.100098 10.8947 0.500098 11.1974 1.8001L13.114 10.8001C11.1974 6.0001 6.75877 2.1001 0 0.500098Z" fill="#F9B50B"/>
<path d="M25.3201 0.299951L16.5438 20.6H10.5921L5.54822 3.59995C9.1798 5.89995 12.2061 9.49995 13.3158 12L13.921 14.1L19.3684 0.199951H25.3201V0.299951Z" fill="#3362AB"/>
<path d="M27.6403 0.199951H33.1886L29.6579 20.6H24.1096L27.6403 0.199951Z" fill="#3362AB"/>
</svg>
