<svg viewBox="0 0 14 14" fill="none" xmlns="http://www.w3.org/2000/svg"><path d="M13.234 8.309l-.008.007-.007.008-4.877 4.921a.924.924 0 01-.653.255.814.814 0 01-.614-.248L.78 6.942C.581 6.744.5 6.54.5 6.31V1.38c0-.234.08-.432.264-.616A.86.86 0 011.41.5h4.885c.27 0 .467.085.63.248l6.295 6.31c.196.196.28.405.28.649a.77.77 0 01-.266.602zM4.121 5.661c.418 0 .794-.144 1.098-.433.31-.295.467-.674.467-1.102a1.53 1.53 0 00-.457-1.109 1.525 1.525 0 00-1.108-.459c-.428 0-.807.157-1.102.469a1.56 1.56 0 00-.431 1.1c0 .418.144.795.44 1.092.297.297.673.442 1.093.442z" stroke="#999"/></svg>