<svg xmlns="http://www.w3.org/2000/svg" viewBox="0 0 103.788 133.507"><linearGradient id="a" gradientUnits="userSpaceOnUse" x1="94.3569" y1="107.1602" x2="58.8426" y2="130.2857" gradientTransform="matrix(1 0 0 -1 0 134.5078)"><stop offset="0" stop-color="#80c3e6"/><stop offset="1" stop-color="#3380c2"/></linearGradient><path fill="url(#a)" d="M82.567 41.431l19.907-31.849H54.59l-6.616 10.614z"/><path opacity=".15" d="M47.978 20.196l3.388-5.448 31.205 26.683z"/><linearGradient id="b" gradientUnits="userSpaceOnUse" x1="100.5884" y1="53.7559" x2="74.0416" y2="71.2868" gradientTransform="matrix(1 0 0 -1 0 134.5078)"><stop offset="0" stop-color="#f38649"/><stop offset=".1849" stop-color="#f28147"/><stop offset=".4091" stop-color="#ef7242"/><stop offset=".6537" stop-color="#ea5a3a"/><stop offset=".911" stop-color="#e4382e"/><stop offset="1" stop-color="#e12a29"/></linearGradient><path fill="url(#b)" d="M93.097 99.174v-47.88l-10.33-6.457-21.722 34.311z"/><path opacity=".15" d="M61.045 79.146l5.366 3.35 16.356-37.659z"/><linearGradient id="c" gradientUnits="userSpaceOnUse" x1="13.1152" y1="91.2051" x2="63.9037" y2="122.9413" gradientTransform="matrix(1 0 0 -1 0 134.5078)"><stop offset="0" stop-color="#42ab4a"/><stop offset="1" stop-color="#add155"/></linearGradient><path fill="url(#c)" d="M15.975 0v47.881l11.079 6.456L82.56 41.425z"/><linearGradient id="d" gradientUnits="userSpaceOnUse" x1="24.2036" y1="34.4077" x2="65.4856" y2="100.4726" gradientTransform="matrix(1 0 0 -1 0 134.5078)"><stop offset="0" stop-color="#42ab4a"/><stop offset="1" stop-color="#add155"/></linearGradient><path fill="url(#d)" d="M26.822 57.988L6.916 89.298h47.881l27.975-44.461z"/><path d="M.002 129.861h2.784l1.392-17.002H1.327v-3.281h7.656l5.236 13.291c.397 1.16.563 1.955.563 1.955h.066s.166-.795.597-1.955l5.203-13.291h7.655v3.281h-2.816l1.358 17.002h2.784v3.248h-9.645v-3.248h2.618l-.861-11.863c-.066-.83.1-2.188.1-2.188h-.1s-.266 1.291-.563 2.088l-4.508 10.836h-3.712l-4.507-10.836c-.299-.797-.53-2.088-.53-2.088h-.133s.166 1.356.1 2.188l-.861 11.863h2.651v3.248H0v-3.248h.002zM43.456 109.18c6.959 0 12.195 5.27 12.195 11.999 0 6.927-5.236 12.328-12.195 12.328-6.961 0-12.197-5.401-12.197-12.328 0-6.73 5.236-11.999 12.197-11.999zm0 20.515c4.242 0 7.723-3.678 7.723-8.517 0-4.641-3.48-8.188-7.723-8.188s-7.723 3.548-7.723 8.188c0 4.84 3.481 8.517 7.723 8.517zM57.81 129.861h2.815v-17.002H57.81v-3.281h10.174c1.892 0 3.382.1 4.906.562 4.573 1.359 7.623 5.403 7.623 11.202 0 5.568-2.818 9.578-7.291 11.07-1.593.562-3.248.694-5.205.694H57.81v-3.245zm10.009-.231c1.49 0 2.684-.133 3.844-.599 2.685-1.094 4.375-3.844 4.375-7.688 0-3.978-1.789-6.694-4.541-7.755-1.192-.464-2.287-.529-3.678-.529h-2.852v16.571h2.852zM83.008 129.861h2.089l5.932-8.683-5.768-8.319h-2.089v-3.281h8.884v3.281h-2.32l3.248 4.873c.433.528.664.994.664.994h.065c0 .032.23-.433.63-.994l3.147-4.873h-2.254v-3.281h8.551v3.281h-2.055l-5.965 8.649 5.865 8.353h2.088v3.248h-8.916v-3.248h2.32l-3.281-4.938c-.43-.562-.662-1.026-.662-1.026h-.066c-.066 0-.266.465-.629 1.026l-3.148 4.938h2.285v3.248h-8.614l-.001-3.248z"/></svg>