<?xml version="1.0" standalone="no"?>
<!DOCTYPE svg PUBLIC "-//W3C//DTD SVG 20010904//EN"
 "http://www.w3.org/TR/2001/REC-SVG-20010904/DTD/svg10.dtd">
<svg version="1.0" xmlns="http://www.w3.org/2000/svg"
 width="733.000000pt" height="804.000000pt" viewBox="0 0 733.000000 804.000000"
 preserveAspectRatio="xMidYMid meet">

<g transform="translate(0.000000,804.000000) scale(0.100000,-0.100000)"
fill="#000000" stroke="none">
<path d="M6810 7880 c-113 -37 -380 -125 -595 -195 -214 -69 -525 -171 -690
-225 -165 -54 -496 -162 -735 -240 -640 -209 -1005 -328 -1850 -605 -140 -46
-430 -140 -645 -210 -214 -69 -403 -131 -418 -137 -43 -17 -111 -88 -140 -148
-24 -50 -118 -323 -497 -1445 -65 -192 -166 -492 -225 -665 -234 -692 -338
-999 -365 -1080 -15 -47 -114 -339 -220 -650 -330 -975 -320 -944 -320 -998 0
-68 6 -79 53 -103 45 -23 1 -24 542 6 273 16 812 45 1273 70 425 23 794 44
1077 59 143 9 319 18 392 22 l132 7 6 -24 c10 -45 83 -444 110 -604 32 -187
30 -260 -10 -341 -30 -61 -89 -118 -151 -146 -56 -24 -169 -33 -664 -53 -212
-9 -477 -20 -590 -25 -113 -5 -339 -15 -502 -21 -284 -12 -333 -18 -314 -36 4
-4 807 -8 1784 -9 977 0 1728 2 1667 6 -60 3 -101 7 -90 8 36 4 119 49 153 83
108 107 133 255 81 479 -22 98 -19 86 -140 458 -50 156 -89 286 -86 289 3 3
111 12 239 19 152 9 247 19 274 29 58 22 130 98 169 180 30 62 150 488 420
1490 24 88 199 732 390 1430 191 699 360 1317 376 1375 15 58 49 182 74 275
26 94 56 204 66 245 11 41 28 104 39 140 10 36 87 315 169 620 149 547 165
625 141 670 -17 32 -92 70 -136 69 -21 0 -131 -31 -244 -69z"/>
</g>
</svg>
