<svg fill="none" viewBox="0 0 803 864" xmlns="http://www.w3.org/2000/svg"><filter id="a" color-interpolation-filters="sRGB" filterUnits="userSpaceOnUse" height="530" width="801.77" x=".23" y="334"><feFlood flood-opacity="0" result="BackgroundImageFix"/><feBlend in="SourceGraphic" in2="BackgroundImageFix" result="shape"/><feGaussianBlur result="effect1_foregroundBlur" stdDeviation="40"/></filter><linearGradient id="b" gradientUnits="userSpaceOnUse" x1="352.7" x2="721.49" y1="284.4" y2="284.4"><stop offset=".21" stop-color="#fff" stop-opacity="0"/><stop offset="1" stop-color="#fff" stop-opacity=".2"/></linearGradient><g filter="url(#a)" opacity=".6"><path d="M450.98 782L83.7 570.28c-5.16-2.93-4.5-8.15 1.47-11.59l246.01-141.86c5.87-3.43 14.95-3.81 20.1-.84l367.24 211.78c5.15 2.93 4.5 8.15-1.47 11.59l-245.98 141.8c-5.95 3.42-14.95 3.8-20.1.82z" fill="#070716"/></g><path d="M729.62 551.17L362.44 339.39c-5.15-2.93-9.32-10.94-9.32-17.79V37.86c0-6.86 4.17-10.01 9.32-7.04L729.62 242.6c5.15 2.93 9.32 10.94 9.32 17.79v283.74c.06 6.86-4.1 10.02-9.32 7.04z" fill="#3c3e63"/><path d="M731.57 554.1l4.07-2.35-1.76-12.04z" fill="#3c3e63"/><path d="M726.32 553.18L359.08 341.34c-5.15-2.93-9.34-10.94-9.34-17.8V39.87c0-6.86 4.18-10.01 9.34-7.04l367.24 211.78c5.15 2.93 9.32 10.94 9.32 17.8v283.67c0 6.85-4.17 10.03-9.32 7.1z" fill="#9193be"/><path d="M725.67 553.49L358.43 341.7c-5.15-2.93-9.34-10.94-9.34-17.8V40.16c0-6.84 4.19-10 9.34-7.03L725.67 244.9c5.14 2.93 9.32 10.94 9.32 17.8v283.75c0 6.86-4.18 10.01-9.32 7.04z" fill="#7274a0"/><path d="M456.7 713.55L89.45 501.85c-5.15-2.94-4.5-8.16 1.47-11.59L336.92 348.4c5.88-3.43 14.95-3.82 20.1-.84l367.24 211.78c5.15 2.93 4.5 8.15-1.47 11.58l-245.98 141.8c-5.95 3.43-14.95 3.8-20.1.83z" fill="#3c3e63"/><path d="M86 497v-6.93l7.77 3.26zM727.74 564.44v-6.76l-5.76 1.98 3.82 5.6z" fill="#3c3e63"/><path d="M456.7 707.73L89.45 495.98c-5.15-2.93-4.5-8.15 1.47-11.59l246.01-141.87c5.88-3.44 14.95-3.8 20.1-.82l367.24 211.77c5.15 2.93 4.5 8.15-1.47 11.59L476.81 706.89c-5.95 3.43-14.95 3.81-20.1.84z" fill="#9193be"/><path d="M456.7 706.83L89.45 495.05c-5.15-2.93-4.5-8.16 1.47-11.58l246.01-141.88c5.88-3.43 14.95-3.8 20.1-.83l367.24 211.79c5.16 2.93 4.51 8.15-1.47 11.58L476.81 706c-5.95 3.44-14.95 3.8-20.1.84z" fill="#7274a0"/><g fill="#232449"><path d="M330.1 389.45l-17.08-9.86c-1.47-.8-1.22-2.21.38-3.14l16.33-9.41a6.03 6.03 0 015.43-.22l17.1 9.85c1.4.81 1.22 2.22-.4 3.14l-16.3 9.42a6.06 6.06 0 01-5.45.22zM354.32 403.4l-17.1-9.86c-1.4-.8-1.22-2.2.4-3.14l16.3-9.4a6.07 6.07 0 015.45-.22l17.1 9.85c1.46.8 1.21 2.22-.39 3.14l-16.32 9.4a6 6 0 01-5.44.24zM378.8 417.53l-17.1-9.87c-1.46-.8-1.21-2.21.39-3.14l16.33-9.4a6 6 0 015.43-.23l17.1 9.87c1.47.79 1.22 2.2-.4 3.14l-16.3 9.4a6.14 6.14 0 01-5.45.23zM402.73 431.32l-17.11-9.86c-1.4-.8-1.22-2.21.4-3.13l16.31-9.42a6.07 6.07 0 015.45-.22l17.1 9.86c1.4.8 1.22 2.2-.4 3.13l-16.3 9.42a6.07 6.07 0 01-5.45.22zM426.95 445.28l-17.1-9.86c-1.48-.8-1.23-2.21.39-3.13l16.31-9.42a6.08 6.08 0 015.45-.22l17.09 9.86c1.4.8 1.22 2.21-.4 3.13l-16.31 9.42a6.06 6.06 0 01-5.43.22zM451.14 459.31l-17.1-9.85c-1.39-.8-1.23-2.21.39-3.14l16.31-9.41a6.1 6.1 0 015.45-.22l17.1 9.85c1.4.8 1.22 2.22-.39 3.14l-16.31 9.42a6.07 6.07 0 01-5.45.21zM475.36 473.2l-17.11-9.85c-1.4-.8-1.22-2.21.4-3.14l16.3-9.41a6.06 6.06 0 015.46-.22l17.09 9.85c1.4.8 1.22 2.22-.38 3.14l-16.33 9.4a6 6 0 01-5.44.24zM499.55 487.18l-17.09-9.87c-1.4-.8-1.22-2.2.38-3.14l16.33-9.4a6 6 0 015.43-.23l17.1 9.87c1.48.8 1.23 2.2-.39 3.14l-16.34 9.38a6.03 6.03 0 01-5.42.25zM523.76 501.11l-17.1-9.85c-1.4-.81-1.22-2.22.4-3.14l16.3-9.4a6.02 6.02 0 015.45-.24l17.1 9.87c1.39.8 1.21 2.2-.39 3.14l-16.3 9.4a6.07 6.07 0 01-5.46.22zM547.96 515.04l-17.09-9.85c-1.4-.8-1.22-2.22.38-3.14l16.3-9.39a6.03 6.03 0 015.43-.22l17.11 9.86c1.4.8 1.22 2.21-.4 3.14l-16.27 9.41a6.06 6.06 0 01-5.46.2zM572.17 529.04l-17.1-9.86c-1.4-.8-1.22-2.21.4-3.13l16.3-9.42a6.07 6.07 0 015.45-.22l17.11 9.85c1.4.81 1.22 2.22-.4 3.14l-16.3 9.42a6.08 6.08 0 01-5.46.22zM596.38 543l-17.1-9.86c-1.4-.8-1.22-2.21.4-3.13l16.32-9.42a6.06 6.06 0 015.45-.22l17.1 9.85c1.46.81 1.21 2.22-.4 3.14l-16.27 9.42a6.03 6.03 0 01-5.5.22zM620.59 556.96l-17.1-9.87c-1.46-.8-1.23-2.2.39-3.14l16.3-9.4a6.08 6.08 0 015.46-.23l17.1 9.87c1.4.8 1.22 2.2-.4 3.14l-16.3 9.4a6.02 6.02 0 01-5.45.23zM656.45 577.64l-28.77-16.59c-1.39-.8-1.21-2.21.4-3.13l16.37-9.4a6.03 6.03 0 015.45-.24l28.7 16.63c1.39.8 1.21 2.21-.4 3.14l-16.32 9.42a6.03 6.03 0 01-5.43.17zM342.57 423.68l-17.1-9.83c-1.48-.8-1.23-2.21.39-3.14l16.31-9.41a6.07 6.07 0 015.45-.22l17.09 9.84c1.4.8 1.22 2.21-.38 3.14L348 423.47a6.05 6.05 0 01-5.43.2zM366.8 437.67l-17.09-9.86c-1.4-.8-1.21-2.21.39-3.13l16.32-9.36a6.04 6.04 0 015.44-.22l17.12 9.8c1.4.8 1.21 2.21-.4 3.14l-16.31 9.41a6.07 6.07 0 01-5.47.22zM391.06 451.64l-17.1-9.85c-1.47-.8-1.22-2.22.4-3.14l16.3-9.41a6.08 6.08 0 015.45-.22l17.1 9.85c1.39.8 1.21 2.22-.39 3.14l-16.33 9.42a6.05 6.05 0 01-5.43.21zM415.3 465.64l-17.1-9.87c-1.4-.8-1.22-2.2.4-3.14l16.3-9.45a6.06 6.06 0 015.45-.23l17.08 9.91c1.4.8 1.22 2.2-.4 3.14l-16.31 9.4a6.02 6.02 0 01-5.42.24zM439.35 479.51l-17.09-9.93c-1.4-.8-1.22-2.2.38-3.14l16.33-9.4a6 6 0 015.43-.23l17.1 9.87c1.48.8 1.23 2.2-.39 3.14l-16.34 9.46a6.07 6.07 0 01-5.42.23zM463.6 493.49l-17.1-9.86c-1.4-.8-1.22-2.21.4-3.14l16.31-9.44a6.06 6.06 0 015.45-.22l17.1 9.85c1.39.81 1.21 2.22-.4 3.14l-16.32 9.42a6.03 6.03 0 01-5.43.25zM487.85 507.46l-17.1-9.85c-1.4-.8-1.22-2.22.4-3.14l16.3-9.4a6.02 6.02 0 015.45-.24l17.1 9.88c1.4.79 1.23 2.2-.39 3.13l-16.31 9.4a6.07 6.07 0 01-5.45.22zM512.1 521.45L495 511.6c-1.4-.8-1.21-2.22.4-3.14l16.31-9.42a6.03 6.03 0 015.44-.22l17.1 9.86c1.4.8 1.22 2.21-.4 3.14l-16.3 9.41a6.07 6.07 0 01-5.46.22zM536.35 535.43l-17.1-9.85c-1.47-.81-1.22-2.22.4-3.14l16.3-9.42a6.07 6.07 0 015.45-.22l17.1 9.86c1.39.8 1.23 2.21-.39 3.14l-16.31 9.41a6.06 6.06 0 01-5.45.22zM560.6 549.42l-17.1-9.87c-1.4-.8-1.22-2.2.38-3.14l16.33-9.4a6.07 6.07 0 015.43-.23l17.15 9.87c1.4.8 1.22 2.21-.4 3.14l-16.3 9.4a6.02 6.02 0 01-5.5.23zM584.85 563.44l-17.1-9.85c-1.4-.8-1.22-2.22.39-3.14l16.31-9.42a6.08 6.08 0 015.45-.22l17.1 9.86c1.39.8 1.21 2.21-.4 3.14l-16.32 9.41a6.06 6.06 0 01-5.43.22zM609.08 577.4L592 567.51c-1.4-.8-1.23-2.2.38-3.14l16.32-9.4a6.06 6.06 0 015.44-.23l17.11 9.87c1.4.8 1.22 2.2-.4 3.14l-16.31 9.4a6.02 6.02 0 01-5.45.23zM318.3 409.7l-28.74-16.59c-1.4-.8-1.22-2.2.38-3.13l16.33-9.4a5.99 5.99 0 015.43-.24l28.82 16.59c1.4.8 1.22 2.21-.4 3.14l-16.36 9.38a6.08 6.08 0 01-5.45.25zM655.28 578.53l-17.1-9.85a5.6 5.6 0 00-5.07 0l-17.24 9.94c-1.47.81-1.47 2.11 0 2.94l1.36.79c1.3.73 1.28 1.95 0 2.7l-18.3 10.5c-1.46.82-1.46 2.12 0 2.93l10.89 6.28a5.6 5.6 0 005.07 0l17.06-9.83 3.52-2.04 2.54-1.46 2.56-1.47 14.68-8.46c1.42-.85 1.42-2.16.03-2.97zM236.36 443.62l-17.1-9.85c-1.46-.81-1.21-2.22.39-3.14l16.32-9.45a6.03 6.03 0 015.44-.22l17.1 9.86c1.4.8 1.22 2.21-.4 3.14l-16.3 9.41a6.06 6.06 0 01-5.45.25zM260.5 457.54l-17.1-9.85c-1.46-.81-1.21-2.22.39-3.14l16.33-9.42a6.03 6.03 0 015.43-.22l17.1 9.86c1.4.8 1.22 2.21-.4 3.14l-16.3 9.41a6.07 6.07 0 01-5.45.22zM284.64 471.46l-17.1-9.86c-1.46-.8-1.23-2.21.39-3.14l16.31-9.41a6.07 6.07 0 015.45-.22l17.06 9.86c1.4.8 1.22 2.21-.4 3.13l-16.31 9.42a6.07 6.07 0 01-5.4.22zM490.2 590l-17.1-9.87c-1.48-.79-1.23-2.2.39-3.14l16.31-9.4a6.08 6.08 0 015.45-.23l17.06 9.87c1.47.8 1.22 2.2-.4 3.14l-16.28 9.47a6 6 0 01-5.43.16zM514.33 603.92l-17.1-9.85c-1.46-.81-1.21-2.22.39-3.14l16.32-9.42a6.03 6.03 0 015.44-.22l17.1 9.86c1.47.8 1.22 2.21-.4 3.14l-16.3 9.41a6.06 6.06 0 01-5.45.22zM538.46 617.84l-17.09-9.86c-1.4-.8-1.22-2.21.38-3.13l16.33-9.42a6.03 6.03 0 015.43-.22l17.1 9.86c1.48.8 1.23 2.21-.39 3.13l-16.31 9.42a6.06 6.06 0 01-5.45.22zM562.6 631.76l-17.09-9.86c-1.4-.8-1.22-2.21.38-3.14l16.34-9.41a6.04 6.04 0 015.44-.22l17.1 9.85c1.47.81 1.22 2.22-.4 3.14l-16.26 9.42a6.08 6.08 0 01-5.5.22zM314.99 488.97l-23.32-13.45c-1.4-.8-1.22-2.21.4-3.14l16.3-9.41a6.06 6.06 0 015.46-.22l23.31 13.44c1.47.81 1.22 2.2-.4 3.14l-16.3 9.4a6.03 6.03 0 01-5.45.24zM466.06 576.09l-23.32-13.45c-1.47-.81-1.22-2.22.38-3.14l16.33-9.42a6.03 6.03 0 015.43-.22l23.32 13.45c1.4.8 1.22 2.2-.38 3.14l-16.33 9.4a6 6 0 01-5.43.24zM435.7 558.57l-113.67-65.52c-1.4-.81-1.22-2.22.38-3.14l16.33-9.42a6.05 6.05 0 015.43-.22l113.68 65.57c1.4.81 1.22 2.22-.4 3.14l-16.31 9.42a6.08 6.08 0 01-5.45.17zM325.68 441.01l-17.1-9.85c-1.39-.8-1.21-2.22.4-3.14l16.32-9.42a6.04 6.04 0 015.43-.22l17.13 9.86c1.47.8 1.22 2.21-.4 3.14l-16.3 9.41a6.06 6.06 0 01-5.48.22zM349.86 454.92l-17.1-9.87c-1.39-.81-1.21-2.2.39-3.14l16.33-9.4a6.04 6.04 0 015.43-.24l17.1 9.87c1.47.8 1.22 2.2-.39 3.14l-16.31 9.4a6.04 6.04 0 01-5.45.24zM374.04 468.9l-17.1-9.86c-1.48-.8-1.23-2.22.39-3.14l16.31-9.42a6.07 6.07 0 015.45-.22l17.1 9.86c1.46.8 1.22 2.21-.39 3.14l-16.31 9.41a6.07 6.07 0 01-5.45.22zM398.23 482.78l-17.1-9.86c-1.48-.8-1.23-2.21.39-3.13l16.27-9.36a6.07 6.07 0 015.45-.22l17.09 9.85c1.47.81 1.22 2.22-.38 3.14l-16.29 9.42a6.03 6.03 0 01-5.43.16zM422.4 496.79l-17.1-9.86c-1.47-.8-1.22-2.21.38-3.14l16.33-9.41a6.04 6.04 0 015.43-.22l17.11 9.85c1.47.81 1.22 2.22-.4 3.14l-16.3 9.42a6.07 6.07 0 01-5.46.22zM446.57 510.73l-17.1-9.87c-1.46-.8-1.22-2.2.4-3.13l16.36-9.4a6.04 6.04 0 015.45-.24l17.1 9.87c1.4.8 1.22 2.2-.4 3.14l-16.3 9.4a6.02 6.02 0 01-5.51.23zM470.76 524.67l-17.1-9.86c-1.4-.8-1.23-2.21.39-3.14l16.31-9.41a6.07 6.07 0 015.45-.22l17.09 9.85c1.47.81 1.22 2.22-.38 3.14l-16.33 9.42a6.03 6.03 0 01-5.43.22zM494.94 538.61l-17.1-9.85c-1.4-.8-1.22-2.22.4-3.14l16.3-9.42a6.07 6.07 0 015.45-.22l17.1 9.86c1.39.8 1.21 2.21-.4 3.14l-16.31 9.41a6.05 6.05 0 01-5.44.22zM519.1 552.56l-17.07-9.85c-1.4-.81-1.22-2.22.38-3.14l16.33-9.42a6.05 6.05 0 015.43-.22l17.1 9.86c1.4.8 1.23 2.21-.39 3.13l-16.31 9.42a6.07 6.07 0 01-5.46.22zM543.29 566.5l-17.1-9.86c-1.4-.81-1.23-2.2.39-3.14l16.31-9.4a6.02 6.02 0 015.45-.24l17.1 9.87c1.4.8 1.22 2.2-.4 3.14l-16.3 9.4a6.08 6.08 0 01-5.45.24zM567.48 580.44l-17.1-9.85c-1.4-.8-1.22-2.22.4-3.14l16.3-9.42a6.07 6.07 0 015.45-.22l17.1 9.86c1.46.8 1.21 2.21-.39 3.14l-16.33 9.41a6.06 6.06 0 01-5.43.22z"/><path d="M591.6 594.39l-17.1-9.86c-1.39-.8-1.21-2.21.4-3.13l16.32-9.42a6.05 6.05 0 015.43-.22l17.1 9.85c1.4.81 1.22 2.22-.4 3.14l-16.26 9.5a6.06 6.06 0 01-5.5.14zM301.5 427.05l-35.36-20.38c-1.47-.81-1.22-2.22.4-3.14l16.3-9.42a6.08 6.08 0 015.45-.22l35.36 20.39c1.47.8 1.22 2.21-.38 3.14l-16.33 9.41a6.03 6.03 0 01-5.43.22zM290.22 447.58l-17.1-9.82c-1.39-.81-1.23-2.2.39-3.14l16.3-9.4a6.02 6.02 0 015.46-.24l17.1 9.87c1.4.8 1.22 2.2-.4 3.14l-16.3 9.4a6.07 6.07 0 01-5.45.2zM314.4 461.56l-17.1-9.86c-1.4-.8-1.23-2.21.39-3.13l16.31-9.42a6.06 6.06 0 015.45-.22l17.09 9.86c1.47.8 1.22 2.21-.38 3.13l-16.33 9.42a6.03 6.03 0 01-5.43.22zM338.57 475.45l-17.14-9.81c-1.46-.8-1.21-2.2.4-3.14l16.31-9.4a6.06 6.06 0 015.45-.24l17.1 9.88c1.47.8 1.23 2.2-.39 3.13l-16.31 9.4a6.03 6.03 0 01-5.42.18zM362.74 489.44l-17.1-9.86c-1.46-.8-1.21-2.21.4-3.13l16.31-9.42a6.06 6.06 0 015.44-.22l17.1 9.86c1.4.8 1.22 2.21-.4 3.13l-16.3 9.42a6.08 6.08 0 01-5.45.22zM386.92 503.38l-17.03-9.85c-1.4-.8-1.22-2.21.4-3.14l16.3-9.41a6.07 6.07 0 015.46-.22l17.09 9.85c1.4.8 1.23 2.22-.39 3.14l-16.3 9.4a6.03 6.03 0 01-5.53.24zM411.09 517.32l-17.1-9.86c-1.39-.8-1.21-2.21.39-3.14l16.32-9.41a6.05 6.05 0 015.44-.22l17.1 9.86c1.4.8 1.22 2.2-.4 3.13l-16.3 9.42a6.09 6.09 0 01-5.45.22zM435.27 531.27l-17.1-9.86c-1.4-.8-1.23-2.21.39-3.14l16.31-9.41a6.06 6.06 0 015.45-.22l17.09 9.85c1.4.81 1.22 2.22-.38 3.14l-16.31 9.42a6.07 6.07 0 01-5.45.22zM459.45 545.22l-17.09-9.87c-1.4-.81-1.22-2.2.38-3.14l16.33-9.4a6 6 0 015.43-.24l17.11 9.87c1.4.8 1.22 2.2-.4 3.14l-16.31 9.4a6.06 6.06 0 01-5.45.24zM483.62 559.14l-17.1-9.85c-1.4-.8-1.22-2.21.4-3.14l16.3-9.42a6.08 6.08 0 015.45-.21l17.1 9.85c1.39.8 1.21 2.22-.39 3.14l-16.33 9.41a6.04 6.04 0 01-5.43.23zM507.8 573.1l-17.1-9.88c-1.4-.79-1.22-2.2.38-3.14l16.33-9.4a6.03 6.03 0 015.43-.23l17.1 9.87c1.39.8 1.21 2.2-.4 3.14l-16.32 9.4a6.03 6.03 0 01-5.43.23zM531.98 587.03l-17.11-9.86c-1.4-.8-1.22-2.21.4-3.14l16.31-9.41a6.07 6.07 0 015.45-.22l17.09 9.85c1.4.8 1.22 2.22-.38 3.14l-16.33 9.42a6.06 6.06 0 01-5.43.22zM586.07 618.24l-46.99-27.12c-1.4-.8-1.23-2.21.38-3.14l16.31-9.41a6.07 6.07 0 015.45-.22l46.99 27.12c1.4.79 1.22 2.2-.4 3.13L591.5 618a6.07 6.07 0 01-5.43.24zM266.05 433.68l-23.32-13.45c-1.46-.8-1.21-2.21.39-3.14l16.32-9.4a6 6 0 015.44-.23l23.31 13.45c1.4.8 1.22 2.21-.38 3.14l-16.3 9.41a6.04 6.04 0 01-5.46.22zM680.74 563.63L337.4 365.64c-1.47-.79-1.22-2.2.4-3.13l8.16-4.7a6.03 6.03 0 015.44-.23l343.34 197.99c1.4.8 1.22 2.2-.4 3.14l-8.14 4.73a6.07 6.07 0 01-5.45.2z"/></g><path d="M468.04 586.15a5.18 5.18 0 01-2.38 2.46L371.2 643.1a11.66 11.66 0 01-10.47.43l-161.5-93.11a3.6 3.6 0 01-1.6-1.63c-.58-1.47.24-3.1 2.38-4.33l94.49-54.5a11.65 11.65 0 0110.47-.42l161.51 93.11a2.85 2.85 0 011.57 3.5z" fill="#575981"/><path d="M468.04 586.15a5.18 5.18 0 01-2.38 2.46l-94.47 54.48a11.65 11.65 0 01-10.47.43l-161.5-93.11a3.6 3.6 0 01-1.6-1.63 5.3 5.3 0 012.38-2.45l94.49-54.49a11.68 11.68 0 0110.47-.44l161.51 93.13c.69.36 1.24.92 1.57 1.62z" fill="#383961"/><path d="M706.87 548.62l-343.35-198a6.06 6.06 0 01-2.45-4.82v-4.03c0-1.87 1.13-2.72 2.53-1.9l343.35 197.98a6.01 6.01 0 012.52 4.81v4.03c-.07 1.88-1.2 2.73-2.6 1.93z" fill="#232449"/><path d="M721.3 528.44L352.7 315.87l.19-272.39c0-2.78 1.96-3.91 4.38-2.55l359.84 207.54a9.67 9.67 0 014.38 7.58z" fill="url(#b)" opacity=".3"/><path d="M722.16 537.78l-359.84-207.5c-5.05-2.93-9.13-10.73-9.13-17.45V45.45c0-6.72 4.08-9.81 9.13-6.9L722.16 246.1c5.05 2.9 9.14 10.7 9.14 17.44v267.35c0 6.75-4.09 9.82-9.14 6.9z" fill="#141530"/><path d="M576.46 213.9l-24.43-14.09v-8.8l24.43 14.09z" fill="#a298e2"/><path d="M632.93 246.49l-51.9-29.96v-8.8l51.9 29.96z" fill="#f9dd79"/><path d="M576.46 242.06L552.03 228v-8.8l24.43 14.07z" fill="#a298e2"/><path d="M598.23 254.83l-17.2-10.12v-8.8l17.2 10.12z" fill="#4d3bff"/><path d="M576.46 256.15l-24.43-14.09v-8.8l24.43 14.09z" fill="#a298e2"/><path d="M610.03 275.5l-29-16.72v-8.8l29 16.72z" fill="#4d3bff"/><path d="M576.46 270.22l-24.43-14.07v-8.8l24.43 14.08z" fill="#a298e2"/><path d="M657.52 316.87l-76.49-44v-8.8l76.5 44.01z" fill="#ff8657"/><path d="M576.46 227.99l-24.43-14.09v-8.8l24.43 14.09zM676.31 285.63l-95.28-55v-8.81l95.28 55zM576.46 284.3l-24.43-14.08v-8.8l24.43 14.08z" fill="#a298e2"/><path d="M663.45 335.36l-82.42-48.4v-8.8l82.42 48.4z" fill="#c33afc"/><path d="M576.46 312.48l-24.43-14.08v-8.8l24.43 14.08zM677.2 370.57l-96.17-55.45v-8.8l96.17 55.45zM576.46 326.56l-24.43-14.08v-8.8l24.43 14.07z" fill="#a298e2"/><path d="M610.03 345.93l-29-16.74v-8.79l29 16.73z" fill="#c33afc"/><path d="M576.46 340.65l-24.43-14.1v-8.8l24.43 14.1z" fill="#a298e2"/><path d="M640.3 377.61l-59.27-34.33v-8.8l59.26 34.33z" fill="#4d3bff"/><path d="M576.46 298.4l-24.43-14.1v-8.8l24.43 14.1z" fill="#a298e2"/><path d="M591.72 307.2l-10.69-6.17v-8.8l10.69 6.17z" fill="#4d3bff"/><path d="M576.46 354.73l-24.43-14.08v-8.8l24.43 14.08z" fill="#a298e2"/><path d="M619.28 379.38l-38.25-22.01v-8.8l38.25 22z" fill="#c33afc"/><path d="M576.46 382.9l-24.43-14.1V360l24.43 14.1z" fill="#a298e2"/><path d="M636.85 417.31l-55.82-31.78v-8.8l55.82 31.78z" fill="#ff8657"/><path d="M576.46 396.98l-24.43-14.08v-8.8l24.43 14.08zM588 404.02l-6.97-4.4v-8.8l6.97 4.4zM576.46 411.05l-24.43-14.07v-8.8l24.43 14.07z" fill="#a298e2"/><path d="M613.04 432.12l-32-18.42v-8.8l32 18.41z" fill="#f9dd79"/><path d="M576.46 368.8l-24.43-14.07v-8.81L576.46 360z" fill="#a298e2"/><path d="M625.57 396.98l-44.54-25.54v-8.79l44.54 25.53z" fill="#4d3bff"/><path d="M418.46 125.88l-24.43-14.08V103l24.43 14.08z" fill="#a298e2"/><path d="M526.83 188.37l-103.8-59.85v-8.8l103.8 59.85z" fill="#c33afc"/><path d="M418.46 154.04l-24.42-14.08v-8.8l24.42 14.08z" fill="#a298e2"/><path d="M491.72 196.3l-68.68-39.62v-8.8l68.68 39.61z" fill="#f9dd79"/><path d="M418.46 168.13l-24.43-14.09v-8.8l24.43 14.09z" fill="#a298e2"/><path d="M508.51 220.05l-85.48-49.28v-8.8l85.48 49.28z" fill="#ff8657"/><path d="M418.47 182.2l-24.43-14.07v-8.8l24.43 14.07zM482.56 219.18l-59.52-34.33v-8.8l59.52 34.33zM418.47 139.96l-24.43-14.1v-8.78l24.43 14.07z" fill="#a298e2"/><path d="M474.93 172.53l-51.9-29.92v-8.8l51.9 29.92z" fill="#4d3bff"/><path d="M418.46 196.3l-24.42-14.1v-8.8l24.42 14.1z" fill="#a298e2"/><path d="M453.56 216.53l-30.52-17.6v-8.8l30.52 17.6z" fill="#c33afc"/><path d="M418.46 224.46l-24.42-14.1v-8.78l24.42 14.07z" fill="#a298e2"/><path d="M519.2 282.56l-96.17-55.46v-8.8l96.17 55.45z" fill="#f9dd79"/><path d="M418.46 238.54l-24.43-14.08v-8.8l24.43 14.08z" fill="#a298e2"/><path d="M452.04 257.9l-29-16.72v-8.8l29 16.72z" fill="#ff8657"/><path d="M418.46 252.63l-24.43-14.09v-8.8l24.43 14.08zM508.52 304.55l-85.48-49.28v-8.8l85.48 49.3zM418.46 210.38l-24.43-14.09v-8.8l24.43 14.09z" fill="#a298e2"/><path d="M503.93 259.67l-80.9-46.65v-8.8l80.9 46.64z" fill="#4d3bff"/><path d="M418.46 266.7l-24.42-14.08v-8.8l24.42 14.08z" fill="#a298e2"/><path d="M433.72 275.5l-10.68-6.15v-8.8l10.68 6.15z" fill="#c33afc"/><path d="M418.46 294.88l-24.43-14.1v-8.8l24.43 14.1z" fill="#a298e2"/><path d="M442.88 308.95l-19.84-11.44v-8.8l19.84 11.44z" fill="#f9dd79"/><path d="M418.46 308.95l-24.42-14.07v-8.8l24.42 14.07z" fill="#a298e2"/><path d="M474.93 341.53l-51.9-29.93v-8.8l51.9 29.93z" fill="#ff8657"/><path d="M418.46 323.04l-24.42-14.09v-8.8l24.42 14.09zM505.46 373.2l-82.42-47.53v-8.8l82.42 47.53zM418.46 280.79l-24.43-14.09v-8.8l24.43 14.09z" fill="#a298e2"/><path d="M526.84 343.28l-103.8-59.85v-8.8l103.8 59.85z" fill="#4d3bff"/><path d="M269.07 243.2L178.54 191c-5.69-3.25-10.3-12.07-10.3-19.64V29.09c0-7.58 4.61-11.04 10.3-7.77l90.53 52.21c5.68 3.25 10.29 12.07 10.29 19.64v142.3c0 7.57-4.61 11.01-10.29 7.73z" fill="#3d4077"/><path d="M272.69 245.28l3.1-1.52-2.1-4.1zM169.94 21.72c.9-.54 1.87-1 2.86-1.38l2.3 4.54z" fill="#3d4077"/><path d="M266.7 244.4l-90.54-52.24c-5.68-3.25-10.29-12.07-10.29-19.64V30.28c0-7.58 4.6-11.05 10.29-7.77l90.54 52.21c5.68 3.25 10.28 12.06 10.28 19.63v142.27c0 7.57-4.6 11.05-10.28 7.77z" fill="#232449"/><path d="M192.62 52.17l-16.46-9.5v-5.92l16.46 9.5z" fill="#a298e2"/><path d="M265.67 94.3L195.7 53.95v-5.92l69.96 40.34z" fill="#c33afc"/><path d="M192.62 71.16l-16.46-9.5v-5.92l16.46 9.5z" fill="#a298e2"/><path d="M242 99.64l-46.29-26.7V67l46.3 26.7z" fill="#f9dd79"/><path d="M192.62 80.65l-16.46-9.49v-5.93l16.46 9.48z" fill="#a298e2"/><path d="M253.32 115.66l-57.6-33.23V76.5l57.6 33.23z" fill="#ff8657"/><path d="M192.62 90.14l-16.46-9.5v-5.93l16.46 9.5zM235.84 115.06L195.7 91.93v-5.94l40.13 23.14zM192.62 61.67l-16.46-9.5v-5.93l16.46 9.5z" fill="#a298e2"/><path d="M230.69 83.62l-34.98-20.18v-5.93l34.98 20.17z" fill="#4d3bff"/><path d="M192.62 99.64l-16.46-9.5v-5.93l16.46 9.5z" fill="#a298e2"/><path d="M216.28 113.28l-20.57-11.87v-5.93l20.57 11.86z" fill="#c33afc"/><path d="M192.62 118.61l-16.46-9.48v-5.93l16.46 9.5z" fill="#a298e2"/><path d="M260.53 157.77L195.7 120.4v-5.93l64.82 37.37z" fill="#f9dd79"/><path d="M192.62 128.1l-16.46-9.48v-5.94l16.46 9.5z" fill="#a298e2"/><path d="M215.25 141.17l-19.54-11.27v-5.94l19.54 11.27z" fill="#ff8657"/><path d="M192.62 137.6l-16.46-9.5v-5.92l16.46 9.5zM253.32 172.6l-57.6-33.22v-5.92l57.6 33.21zM192.62 109.13l-16.46-9.5v-5.92l16.46 9.49z" fill="#a298e2"/><path d="M250.23 142.36l-54.52-31.45v-5.93l54.52 31.45z" fill="#4d3bff"/><path d="M192.62 147.1l-16.46-9.5v-5.93l16.46 9.5z" fill="#a298e2"/><path d="M202.9 153.03l-7.19-4.16v-5.93l7.2 4.16z" fill="#c33afc"/><path d="M192.62 166.08l-16.46-9.49v-5.93l16.46 9.5z" fill="#a298e2"/><path d="M209.09 175.57l-13.38-7.7v-5.94l13.38 7.71z" fill="#f9dd79"/><path d="M192.62 175.57l-16.46-9.5v-5.92l16.46 9.49z" fill="#a298e2"/><path d="M230.69 197.53l-34.98-20.17v-5.93l34.98 20.16z" fill="#ff8657"/><path d="M192.62 185.07l-16.46-9.5v-5.93l16.46 9.5zM251.26 218.89l-55.55-32.05v-5.93l55.55 32.05zM192.62 156.6l-16.46-9.5v-5.93l16.46 9.5z" fill="#a298e2"/><path d="M265.67 198.72l-69.96-40.35v-5.93l69.96 40.34z" fill="#4d3bff"/><path d="M99.1 106.03L28.8 65.48c-4.42-2.52-8-9.38-8-15.26V7c0-5.88 3.58-8.57 8-6.03L99.1 41.5c4.41 2.53 8 9.38 8 15.26V100c0 5.9-3.59 8.56-8 6.02z" fill="#32356f"/><path d="M101.92 107.64l2.4-1.18-1.62-3.19zM22.1 1.27C22.81.85 23.56.49 24.33.2l1.78 3.52z" fill="#32356f"/><path d="M97.26 106.95L26.94 66.38c-4.42-2.53-8-9.38-8-15.26V7.92c0-5.89 3.58-8.59 8-6.04l70.32 40.56c4.41 2.52 7.99 9.36 7.99 15.24v43.23c0 5.88-3.58 8.59-8 6.04z" fill="#1f2149"/><path d="M39.72 24.92l-12.78-7.37v-4.61l12.78 7.37z" fill="#a298e2"/><path d="M96.46 57.64L42.12 26.3v-4.6l54.34 31.33z" fill="#c33afc"/><path d="M39.72 39.67L26.94 32.3v-4.61l12.78 7.37z" fill="#a298e2"/><path d="M78.08 61.79L42.12 41.05v-4.6l35.96 20.73z" fill="#f9dd79"/><path d="M39.72 47.04l-12.78-7.37v-4.6l12.78 7.36z" fill="#a298e2"/><path d="M86.87 74.23l-44.75-25.8v-4.61l44.75 25.8z" fill="#ff8657"/><path d="M39.72 54.41l-12.78-7.37v-4.61l12.78 7.37zM73.3 73.77L42.11 55.8v-4.6L73.3 69.15zM39.72 32.3l-12.78-7.38v-4.6l12.78 7.37z" fill="#a298e2"/><path d="M69.3 49.35L42.11 33.67v-4.6L69.3 44.73z" fill="#4d3bff"/><path d="M39.72 61.79L26.94 54.4v-4.6l12.78 7.37z" fill="#a298e2"/><path d="M58.1 72.38l-15.98-9.21v-4.61l15.98 9.21z" fill="#c33afc"/></svg>