<svg width="803" height="864" viewBox="0 0 803 864" fill="none" xmlns="http://www.w3.org/2000/svg">
<g opacity="0.6">
<path opacity="0.6" d="M450.98 782L83.7 570.28C78.54 567.35 79.2 562.13 85.17 558.69L331.18 416.83C337.05 413.4 346.13 413.02 351.28 415.99L718.52 627.77C723.67 630.7 723.02 635.92 717.05 639.36L471.07 781.16C465.12 784.58 456.12 784.96 450.97 781.98L450.98 782Z" fill="#070716"/>
</g>
<path d="M729.62 551.17L362.44 339.39C357.29 336.46 353.12 328.45 353.12 321.6V37.86C353.12 31 357.29 27.85 362.44 30.82L729.62 242.6C734.77 245.53 738.94 253.54 738.94 260.39V544.13C739 550.99 734.84 554.15 729.62 551.17Z" fill="#3C3E63"/>
<path d="M731.57 554.1L735.64 551.75L733.88 539.71L731.57 554.1Z" fill="#3C3E63"/>
<path d="M726.32 553.18L359.08 341.34C353.93 338.41 349.74 330.4 349.74 323.54V39.87C349.74 33.01 353.92 29.86 359.08 32.83L726.32 244.61C731.47 247.54 735.64 255.55 735.64 262.41V546.08C735.64 552.93 731.47 556.11 726.32 553.18V553.18Z" fill="#9193BE"/>
<path d="M725.67 553.49L358.43 341.7C353.28 338.77 349.09 330.76 349.09 323.9V40.16C349.09 33.32 353.28 30.16 358.43 33.13L725.67 244.9C730.81 247.83 734.99 255.84 734.99 262.7V546.45C734.99 553.31 730.81 556.46 725.67 553.49Z" fill="#4F5172"/>
<path d="M456.7 713.55L89.45 501.85C84.3 498.91 84.95 493.69 90.92 490.26L336.92 348.4C342.8 344.97 351.87 344.58 357.02 347.56L724.26 559.34C729.41 562.27 728.76 567.49 722.79 570.92L476.81 712.72C470.86 716.15 461.86 716.52 456.71 713.55H456.7Z" fill="#3C3E63"/>
<path d="M86 497V490.07L93.77 493.33L86 497ZM727.74 564.44V557.68L721.98 559.66L725.8 565.26L727.74 564.44Z" fill="#3C3E63"/>
<path d="M456.7 707.73L89.45 495.98C84.3 493.05 84.95 487.83 90.92 484.39L336.93 342.52C342.81 339.08 351.88 338.72 357.03 341.7L724.27 553.47C729.42 556.4 728.77 561.62 722.8 565.06L476.81 706.89C470.86 710.32 461.86 710.7 456.71 707.73H456.7Z" fill="#9193BE"/>
<path d="M456.7 706.83L89.45 495.05C84.3 492.12 84.95 486.89 90.92 483.47L336.93 341.59C342.81 338.16 351.88 337.79 357.03 340.76L724.27 552.55C729.43 555.48 728.78 560.7 722.8 564.13L476.81 706C470.86 709.44 461.86 709.8 456.71 706.84L456.7 706.83Z" fill="#4F5172"/>
<path d="M330.1 389.45L313.02 379.59C311.55 378.79 311.8 377.38 313.4 376.45L329.73 367.04C330.555 366.581 331.476 366.322 332.419 366.284C333.362 366.245 334.301 366.429 335.16 366.82L352.26 376.67C353.66 377.48 353.48 378.89 351.86 379.81L335.56 389.23C334.732 389.69 333.808 389.95 332.861 389.988C331.915 390.026 330.972 389.842 330.11 389.45H330.1ZM354.32 403.4L337.22 393.54C335.82 392.74 336 391.34 337.62 390.4L353.92 381C354.748 380.541 355.673 380.282 356.619 380.243C357.565 380.205 358.507 380.389 359.37 380.78L376.47 390.63C377.93 391.43 377.68 392.85 376.08 393.77L359.76 403.17C358.936 403.636 358.014 403.901 357.069 403.943C356.123 403.984 355.181 403.802 354.32 403.41V403.4ZM378.8 417.53L361.7 407.66C360.24 406.86 360.49 405.45 362.09 404.52L378.42 395.12C379.243 394.657 380.164 394.395 381.107 394.355C382.051 394.315 382.991 394.498 383.85 394.89L400.95 404.76C402.42 405.55 402.17 406.96 400.55 407.9L384.25 417.3C383.421 417.756 382.497 418.014 381.552 418.053C380.607 418.093 379.665 417.914 378.8 417.53V417.53ZM402.73 431.32L385.62 421.46C384.22 420.66 384.4 419.25 386.02 418.33L402.33 408.91C403.158 408.451 404.083 408.192 405.029 408.153C405.975 408.115 406.917 408.299 407.78 408.69L424.88 418.55C426.28 419.35 426.1 420.75 424.48 421.68L408.18 431.1C407.352 431.559 406.427 431.818 405.481 431.857C404.535 431.895 403.593 431.711 402.73 431.32V431.32ZM426.95 445.28L409.85 435.42C408.37 434.62 408.62 433.21 410.24 432.29L426.55 422.87C427.379 422.411 428.303 422.153 429.249 422.115C430.195 422.076 431.137 422.26 432 422.65L449.09 432.51C450.49 433.31 450.31 434.72 448.69 435.64L432.38 445.06C431.555 445.517 430.634 445.775 429.691 445.813C428.748 445.851 427.81 445.669 426.95 445.28V445.28ZM451.14 459.31L434.04 449.46C432.65 448.66 432.81 447.25 434.43 446.32L450.74 436.91C451.569 436.453 452.493 436.195 453.439 436.157C454.385 436.119 455.327 436.301 456.19 436.69L473.29 446.54C474.69 447.34 474.51 448.76 472.9 449.68L456.59 459.1C455.761 459.558 454.836 459.815 453.89 459.852C452.944 459.888 452.002 459.703 451.14 459.31V459.31ZM475.36 473.2L458.25 463.35C456.85 462.55 457.03 461.14 458.65 460.21L474.95 450.8C475.779 450.338 476.705 450.078 477.654 450.04C478.602 450.001 479.546 450.187 480.41 450.58L497.5 460.43C498.9 461.23 498.72 462.65 497.12 463.57L480.79 472.97C479.966 473.436 479.044 473.701 478.099 473.743C477.153 473.784 476.211 473.602 475.35 473.21L475.36 473.2ZM499.55 487.18L482.46 477.31C481.06 476.51 481.24 475.11 482.84 474.17L499.17 464.77C499.993 464.307 500.914 464.045 501.857 464.005C502.801 463.965 503.741 464.148 504.6 464.54L521.7 474.41C523.18 475.21 522.93 476.61 521.31 477.55L504.97 486.93C504.149 487.392 503.231 487.656 502.29 487.699C501.348 487.742 500.41 487.565 499.55 487.18V487.18ZM523.76 501.11L506.66 491.26C505.26 490.45 505.44 489.04 507.06 488.12L523.36 478.72C524.185 478.254 525.109 477.989 526.056 477.947C527.003 477.906 527.947 478.088 528.81 478.48L545.91 488.35C547.3 489.15 547.12 490.55 545.52 491.49L529.22 500.89C528.39 501.351 527.464 501.611 526.516 501.649C525.568 501.687 524.624 501.503 523.76 501.11V501.11ZM547.96 515.04L530.87 505.19C529.47 504.39 529.65 502.97 531.25 502.05L547.55 492.66C548.375 492.201 549.296 491.942 550.239 491.904C551.182 491.865 552.121 492.049 552.98 492.44L570.09 502.3C571.49 503.1 571.31 504.51 569.69 505.44L553.42 514.85C552.589 515.309 551.662 515.565 550.714 515.6C549.765 515.635 548.822 515.446 547.96 515.05V515.04ZM572.17 529.04L555.07 519.18C553.67 518.38 553.85 516.97 555.47 516.05L571.77 506.63C572.598 506.171 573.523 505.912 574.469 505.873C575.415 505.835 576.357 506.019 577.22 506.41L594.33 516.26C595.73 517.07 595.55 518.48 593.93 519.4L577.63 528.82C576.8 529.28 575.874 529.54 574.926 529.578C573.978 529.616 573.034 529.432 572.17 529.04V529.04ZM596.38 543L579.28 533.14C577.88 532.34 578.06 530.93 579.68 530.01L596 520.59C596.828 520.13 597.752 519.87 598.699 519.832C599.645 519.794 600.588 519.978 601.45 520.37L618.55 530.22C620.01 531.03 619.76 532.44 618.15 533.36L601.88 542.78C601.047 543.251 600.113 543.516 599.157 543.554C598.2 543.592 597.248 543.402 596.38 543V543ZM620.59 556.96L603.49 547.09C602.03 546.29 602.26 544.89 603.88 543.95L620.18 534.55C621.009 534.088 621.935 533.827 622.883 533.787C623.831 533.747 624.775 533.93 625.64 534.32L642.74 544.19C644.14 544.99 643.96 546.39 642.34 547.33L626.04 556.73C625.214 557.195 624.29 557.458 623.343 557.498C622.395 557.538 621.452 557.353 620.59 556.96V556.96ZM656.45 577.64L627.68 561.05C626.29 560.25 626.47 558.84 628.08 557.92L644.45 548.52C645.276 548.054 646.199 547.79 647.146 547.748C648.093 547.707 649.037 547.889 649.9 548.28L678.6 564.91C679.99 565.71 679.81 567.12 678.2 568.05L661.88 577.47C661.051 577.921 660.128 578.172 659.185 578.201C658.242 578.231 657.305 578.038 656.45 577.64V577.64ZM342.57 423.68L325.47 413.85C323.99 413.05 324.24 411.64 325.86 410.71L342.17 401.3C342.998 400.841 343.923 400.582 344.869 400.543C345.815 400.505 346.757 400.689 347.62 401.08L364.71 410.92C366.11 411.72 365.93 413.13 364.33 414.06L348 423.47C347.173 423.924 346.252 424.179 345.309 424.214C344.366 424.249 343.428 424.062 342.57 423.67V423.68ZM366.8 437.67L349.71 427.81C348.31 427.01 348.5 425.6 350.1 424.68L366.42 415.32C367.246 414.86 368.169 414.6 369.114 414.562C370.059 414.524 370.999 414.708 371.86 415.1L388.98 424.9C390.38 425.7 390.19 427.11 388.58 428.04L372.27 437.45C371.439 437.913 370.511 438.173 369.561 438.212C368.611 438.25 367.665 438.064 366.8 437.67ZM391.06 451.64L373.96 441.79C372.49 440.99 372.74 439.57 374.36 438.65L390.66 429.24C391.489 428.781 392.413 428.523 393.359 428.485C394.305 428.446 395.247 428.63 396.11 429.02L413.21 438.87C414.6 439.67 414.42 441.09 412.82 442.01L396.49 451.43C395.664 451.886 394.743 452.142 393.8 452.179C392.857 452.215 391.919 452.031 391.06 451.64V451.64ZM415.3 465.64L398.2 455.77C396.8 454.97 396.98 453.57 398.6 452.63L414.9 443.18C415.727 442.718 416.651 442.457 417.598 442.417C418.544 442.377 419.487 442.56 420.35 442.95L437.43 452.86C438.83 453.66 438.65 455.06 437.03 456L420.72 465.4C419.898 465.861 418.98 466.124 418.039 466.165C417.097 466.207 416.159 466.027 415.3 465.64V465.64ZM439.35 479.51L422.26 469.58C420.86 468.78 421.04 467.38 422.64 466.44L438.97 457.04C439.793 456.577 440.714 456.315 441.657 456.275C442.601 456.235 443.541 456.418 444.4 456.81L461.5 466.68C462.98 467.48 462.73 468.88 461.11 469.82L444.77 479.28C443.946 479.736 443.028 479.994 442.087 480.034C441.146 480.074 440.209 479.895 439.35 479.51V479.51ZM463.6 493.49L446.5 483.63C445.1 482.83 445.28 481.42 446.9 480.49L463.21 471.05C464.038 470.59 464.962 470.33 465.909 470.292C466.855 470.254 467.798 470.438 468.66 470.83L485.76 480.68C487.15 481.49 486.97 482.9 485.36 483.82L469.04 493.24C468.218 493.704 467.298 493.968 466.355 494.012C465.412 494.055 464.471 493.876 463.61 493.49H463.6ZM487.85 507.46L470.75 497.61C469.35 496.81 469.53 495.39 471.15 494.47L487.45 485.07C488.275 484.604 489.199 484.339 490.146 484.297C491.093 484.256 492.037 484.438 492.9 484.83L510 494.71C511.4 495.5 511.23 496.91 509.61 497.84L493.3 507.24C492.472 507.699 491.547 507.958 490.601 507.997C489.655 508.035 488.713 507.851 487.85 507.46V507.46ZM512.1 521.45L495 511.6C493.6 510.8 493.79 509.38 495.4 508.46L511.71 499.04C512.536 498.579 513.459 498.319 514.404 498.281C515.349 498.243 516.29 498.427 517.15 498.82L534.25 508.68C535.65 509.48 535.47 510.89 533.85 511.82L517.55 521.23C516.72 521.691 515.794 521.951 514.846 521.989C513.898 522.027 512.954 521.843 512.09 521.45H512.1ZM536.35 535.43L519.25 525.58C517.78 524.77 518.03 523.36 519.65 522.44L535.95 513.02C536.778 512.561 537.703 512.302 538.649 512.263C539.595 512.225 540.537 512.409 541.4 512.8L558.5 522.66C559.89 523.46 559.73 524.87 558.11 525.8L541.8 535.21C540.972 535.67 540.048 535.93 539.101 535.968C538.155 536.006 537.212 535.822 536.35 535.43V535.43ZM560.6 549.42L543.5 539.55C542.1 538.75 542.28 537.35 543.88 536.41L560.21 527.01C561.035 526.552 561.955 526.293 562.898 526.253C563.84 526.213 564.779 526.394 565.64 526.78L582.79 536.65C584.19 537.45 584.01 538.86 582.39 539.79L566.09 549.19C565.258 549.663 564.324 549.93 563.368 549.97C562.411 550.01 561.459 549.822 560.59 549.42H560.6ZM584.85 563.44L567.75 553.59C566.35 552.79 566.53 551.37 568.14 550.45L584.45 541.03C585.279 540.571 586.203 540.313 587.149 540.275C588.095 540.236 589.037 540.42 589.9 540.81L607 550.67C608.39 551.47 608.21 552.88 606.6 553.81L590.28 563.22C589.455 563.677 588.534 563.935 587.591 563.973C586.648 564.011 585.71 563.829 584.85 563.44ZM609.08 577.4L592 567.51C590.6 566.71 590.77 565.31 592.38 564.37L608.7 554.97C609.526 554.51 610.448 554.25 611.393 554.21C612.337 554.17 613.278 554.351 614.14 554.74L631.25 564.61C632.65 565.41 632.47 566.81 630.85 567.75L614.54 577.15C613.714 577.615 612.79 577.878 611.843 577.918C610.895 577.958 609.952 577.773 609.09 577.38L609.08 577.4ZM318.3 409.7L289.56 393.11C288.16 392.31 288.34 390.91 289.94 389.98L306.27 380.58C307.092 380.115 308.013 379.85 308.956 379.809C309.9 379.767 310.84 379.949 311.7 380.34L340.52 396.93C341.92 397.73 341.74 399.14 340.12 400.07L323.76 409.45C322.934 409.913 322.011 410.177 321.065 410.221C320.118 410.264 319.175 410.086 318.31 409.7H318.3ZM655.28 578.53L638.18 568.68C637.394 568.281 636.526 568.073 635.645 568.073C634.764 568.073 633.896 568.281 633.11 568.68L615.87 578.62C614.4 579.43 614.4 580.73 615.87 581.56L617.23 582.35C618.53 583.08 618.51 584.3 617.23 585.05L598.93 595.55C597.47 596.37 597.47 597.67 598.93 598.48L609.82 604.76C610.606 605.159 611.474 605.367 612.355 605.367C613.236 605.367 614.105 605.159 614.89 604.76L631.95 594.93L635.47 592.89L638.01 591.43L640.57 589.96L655.25 581.5C656.67 580.65 656.67 579.34 655.28 578.53V578.53ZM236.36 443.62L219.26 433.77C217.8 432.96 218.05 431.55 219.65 430.63L235.97 421.18C236.796 420.719 237.719 420.459 238.664 420.421C239.609 420.383 240.55 420.567 241.41 420.96L258.51 430.82C259.91 431.62 259.73 433.03 258.11 433.96L241.81 443.37C240.984 443.835 240.061 444.1 239.115 444.143C238.168 444.186 237.225 444.007 236.36 443.62ZM260.5 457.54L243.4 447.69C241.94 446.88 242.19 445.47 243.79 444.55L260.12 435.13C260.945 434.671 261.866 434.412 262.809 434.374C263.752 434.335 264.691 434.519 265.55 434.91L282.65 444.77C284.05 445.57 283.87 446.98 282.25 447.91L265.95 457.32C265.122 457.779 264.197 458.038 263.251 458.077C262.305 458.115 261.363 457.931 260.5 457.54V457.54ZM284.64 471.46L267.54 461.6C266.08 460.8 266.31 459.39 267.93 458.46L284.24 449.05C285.068 448.591 285.993 448.332 286.939 448.293C287.885 448.255 288.827 448.439 289.69 448.83L306.75 458.69C308.15 459.49 307.97 460.9 306.35 461.82L290.04 471.24C289.218 471.691 288.303 471.946 287.366 471.984C286.429 472.022 285.496 471.843 284.64 471.46ZM490.2 590L473.1 580.13C471.62 579.34 471.87 577.93 473.49 576.99L489.8 567.59C490.628 567.13 491.552 566.869 492.498 566.83C493.444 566.79 494.386 566.971 495.25 567.36L512.31 577.23C513.78 578.03 513.53 579.43 511.91 580.37L495.63 589.84C494.801 590.292 493.878 590.542 492.934 590.57C491.991 590.598 491.054 590.402 490.2 590V590ZM514.33 603.92L497.23 594.07C495.77 593.26 496.02 591.85 497.62 590.93L513.94 581.51C514.766 581.049 515.689 580.789 516.634 580.751C517.579 580.713 518.52 580.897 519.38 581.29L536.48 591.15C537.95 591.95 537.7 593.36 536.08 594.29L519.78 603.7C518.952 604.16 518.028 604.42 517.081 604.458C516.135 604.496 515.192 604.312 514.33 603.92V603.92ZM538.46 617.84L521.37 607.98C519.97 607.18 520.15 605.77 521.75 604.85L538.08 595.43C538.905 594.971 539.826 594.712 540.769 594.674C541.712 594.635 542.651 594.819 543.51 595.21L560.61 605.07C562.09 605.87 561.84 607.28 560.22 608.2L543.91 617.62C543.082 618.08 542.158 618.34 541.211 618.378C540.265 618.416 539.322 618.232 538.46 617.84V617.84ZM562.6 631.76L545.51 621.9C544.11 621.1 544.29 619.69 545.89 618.76L562.23 609.35C563.056 608.89 563.979 608.63 564.924 608.592C565.869 608.554 566.809 608.738 567.67 609.13L584.77 618.98C586.24 619.79 585.99 621.2 584.37 622.12L568.11 631.54C567.275 632.007 566.342 632.27 565.386 632.308C564.431 632.346 563.479 632.159 562.61 631.76H562.6ZM314.99 488.97L291.67 475.52C290.27 474.72 290.45 473.31 292.07 472.38L308.37 462.97C309.199 462.508 310.125 462.248 311.074 462.21C312.022 462.171 312.966 462.357 313.83 462.75L337.14 476.19C338.61 477 338.36 478.39 336.74 479.33L320.44 488.73C319.614 489.196 318.691 489.46 317.744 489.502C316.797 489.543 315.853 489.361 314.99 488.97V488.97ZM466.06 576.09L442.74 562.64C441.27 561.83 441.52 560.42 443.12 559.5L459.45 550.08C460.275 549.621 461.196 549.362 462.139 549.324C463.082 549.285 464.021 549.469 464.88 549.86L488.2 563.31C489.6 564.11 489.42 565.51 487.82 566.45L471.49 575.85C470.668 576.315 469.747 576.578 468.804 576.62C467.86 576.662 466.92 576.48 466.06 576.09V576.09ZM435.7 558.57L322.03 493.05C320.63 492.24 320.81 490.83 322.41 489.91L338.74 480.49C339.565 480.032 340.486 479.774 341.429 479.736C342.372 479.698 343.31 479.881 344.17 480.27L457.85 545.84C459.25 546.65 459.07 548.06 457.45 548.98L441.14 558.4C440.308 558.851 439.381 559.101 438.435 559.13C437.489 559.16 436.549 558.968 435.69 558.57H435.7ZM325.68 441.01L308.58 431.16C307.19 430.36 307.37 428.94 308.98 428.02L325.3 418.6C326.125 418.142 327.046 417.883 327.989 417.845C328.932 417.807 329.871 417.99 330.73 418.38L347.86 428.24C349.33 429.04 349.08 430.45 347.46 431.38L331.16 440.79C330.328 441.255 329.398 441.517 328.446 441.555C327.494 441.594 326.546 441.407 325.68 441.01V441.01ZM349.86 454.92L332.76 445.05C331.37 444.24 331.55 442.85 333.15 441.91L349.48 432.51C350.303 432.048 351.223 431.786 352.166 431.745C353.109 431.703 354.049 431.883 354.91 432.27L372.01 442.14C373.48 442.94 373.23 444.34 371.62 445.28L355.31 454.68C354.484 455.145 353.56 455.409 352.614 455.45C351.667 455.492 350.724 455.31 349.86 454.92V454.92ZM374.04 468.9L356.94 459.04C355.46 458.24 355.71 456.82 357.33 455.9L373.64 446.48C374.468 446.021 375.393 445.762 376.339 445.723C377.285 445.685 378.227 445.869 379.09 446.26L396.19 456.12C397.65 456.92 397.41 458.33 395.8 459.26L379.49 468.67C378.662 469.129 377.737 469.388 376.791 469.427C375.845 469.465 374.903 469.281 374.04 468.89V468.9ZM398.23 482.78L381.13 472.92C379.65 472.12 379.9 470.71 381.52 469.79L397.79 460.43C398.618 459.971 399.543 459.712 400.489 459.673C401.435 459.635 402.377 459.819 403.24 460.21L420.33 470.06C421.8 470.87 421.55 472.28 419.95 473.2L403.66 482.62C402.831 483.07 401.907 483.318 400.964 483.346C400.021 483.374 399.085 483.18 398.23 482.78V482.78ZM422.4 496.79L405.3 486.93C403.83 486.13 404.08 484.72 405.68 483.79L422.01 474.38C422.835 473.922 423.756 473.663 424.699 473.625C425.642 473.587 426.581 473.77 427.44 474.16L444.55 484.01C446.02 484.82 445.77 486.23 444.15 487.15L427.85 496.57C427.02 497.031 426.094 497.291 425.146 497.329C424.198 497.367 423.254 497.183 422.39 496.79H422.4ZM446.57 510.73L429.47 500.86C428.01 500.06 428.25 498.66 429.87 497.73L446.23 488.33C447.056 487.865 447.98 487.601 448.926 487.56C449.873 487.518 450.816 487.7 451.68 488.09L468.78 497.96C470.18 498.76 470 500.16 468.38 501.1L452.08 510.5C451.246 510.975 450.311 511.243 449.353 511.283C448.394 511.323 447.44 511.133 446.57 510.73V510.73ZM470.76 524.67L453.66 514.81C452.26 514.01 452.43 512.6 454.05 511.67L470.36 502.26C471.188 501.801 472.113 501.542 473.059 501.503C474.005 501.465 474.947 501.649 475.81 502.04L492.9 511.89C494.37 512.7 494.12 514.11 492.52 515.03L476.19 524.45C475.365 524.909 474.444 525.168 473.501 525.206C472.558 525.245 471.619 525.061 470.76 524.67V524.67ZM494.94 538.61L477.84 528.76C476.44 527.96 476.62 526.54 478.24 525.62L494.54 516.2C495.368 515.741 496.293 515.482 497.239 515.443C498.185 515.405 499.127 515.589 499.99 515.98L517.09 525.84C518.48 526.64 518.3 528.05 516.69 528.98L500.38 538.39C499.554 538.849 498.631 539.108 497.686 539.146C496.741 539.185 495.801 539.001 494.94 538.61V538.61ZM519.1 552.56L502.03 542.71C500.63 541.9 500.81 540.49 502.41 539.57L518.74 530.15C519.565 529.692 520.486 529.434 521.429 529.396C522.372 529.358 523.31 529.541 524.17 529.93L541.27 539.79C542.67 540.59 542.5 542 540.88 542.92L524.57 552.34C523.74 552.801 522.814 553.061 521.866 553.099C520.918 553.137 519.974 552.953 519.11 552.56H519.1ZM543.29 566.5L526.19 556.64C524.79 555.83 524.96 554.44 526.58 553.5L542.89 544.1C543.715 543.634 544.639 543.369 545.586 543.327C546.533 543.286 547.477 543.468 548.34 543.86L565.44 553.73C566.84 554.53 566.66 555.93 565.04 556.87L548.74 566.27C547.913 566.732 546.99 566.994 546.043 567.036C545.097 567.077 544.154 566.897 543.29 566.51V566.5ZM567.48 580.44L550.38 570.59C548.98 569.79 549.16 568.37 550.78 567.45L567.08 558.03C567.908 557.571 568.833 557.312 569.779 557.273C570.725 557.235 571.667 557.419 572.53 557.81L589.63 567.67C591.09 568.47 590.84 569.88 589.24 570.81L572.91 580.22C572.084 580.677 571.164 580.935 570.221 580.973C569.278 581.011 568.34 580.829 567.48 580.44Z" fill="#232449"/>
<path d="M591.6 594.39L574.5 584.53C573.11 583.73 573.29 582.32 574.9 581.4L591.22 571.98C592.045 571.522 592.966 571.264 593.909 571.226C594.852 571.188 595.79 571.371 596.65 571.76L613.75 581.61C615.15 582.42 614.97 583.83 613.35 584.75L597.09 594.25C596.249 594.706 595.313 594.956 594.357 594.98C593.401 595.005 592.453 594.802 591.59 594.39H591.6ZM301.5 427.05L266.14 406.67C264.67 405.86 264.92 404.45 266.54 403.53L282.84 394.11C283.669 393.651 284.593 393.393 285.539 393.355C286.485 393.316 287.427 393.5 288.29 393.89L323.65 414.28C325.12 415.08 324.87 416.49 323.27 417.42L306.94 426.83C306.115 427.289 305.194 427.548 304.251 427.586C303.308 427.625 302.369 427.441 301.51 427.05H301.5ZM290.22 447.58L273.12 437.76C271.73 436.95 271.89 435.56 273.51 434.62L289.81 425.22C290.637 424.752 291.562 424.486 292.511 424.445C293.46 424.403 294.406 424.586 295.27 424.98L312.37 434.85C313.77 435.65 313.59 437.05 311.97 437.99L295.67 447.39C294.84 447.846 293.915 448.102 292.969 448.137C292.022 448.171 291.081 447.984 290.22 447.59V447.58ZM314.4 461.56L297.3 451.7C295.9 450.9 296.07 449.49 297.69 448.57L314 439.15C314.828 438.69 315.752 438.43 316.699 438.392C317.645 438.354 318.588 438.538 319.45 438.93L336.54 448.79C338.01 449.59 337.76 451 336.16 451.92L319.83 461.34C319.005 461.799 318.084 462.058 317.141 462.096C316.198 462.135 315.259 461.951 314.4 461.56V461.56ZM338.57 475.45L321.43 465.64C319.97 464.84 320.22 463.44 321.83 462.5L338.14 453.1C338.966 452.637 339.89 452.374 340.836 452.332C341.783 452.29 342.726 452.471 343.59 452.86L360.69 462.74C362.16 463.54 361.92 464.94 360.3 465.87L343.99 475.27C343.163 475.721 342.243 475.972 341.301 476.004C340.36 476.035 339.425 475.845 338.57 475.45V475.45ZM362.74 489.44L345.64 479.58C344.18 478.78 344.43 477.37 346.04 476.45L362.35 467.03C363.177 466.572 364.099 466.313 365.044 466.275C365.989 466.237 366.929 466.42 367.79 466.81L384.89 476.67C386.29 477.47 386.11 478.88 384.49 479.8L368.19 489.22C367.361 489.679 366.437 489.937 365.491 489.975C364.545 490.014 363.603 489.83 362.74 489.44V489.44ZM386.92 503.38L369.89 493.53C368.49 492.73 368.67 491.32 370.29 490.39L386.59 480.98C387.42 480.519 388.346 480.259 389.294 480.221C390.242 480.183 391.186 480.367 392.05 480.76L409.14 490.61C410.54 491.41 410.37 492.83 408.75 493.75L392.45 503.15C391.614 503.629 390.676 503.9 389.714 503.942C388.752 503.984 387.794 503.795 386.92 503.39V503.38ZM411.09 517.32L393.99 507.46C392.6 506.66 392.78 505.25 394.38 504.32L410.7 494.91C411.527 494.451 412.449 494.192 413.394 494.154C414.339 494.115 415.279 494.299 416.14 494.69L433.24 504.55C434.64 505.35 434.46 506.75 432.84 507.68L416.54 517.1C415.711 517.558 414.787 517.816 413.841 517.854C412.895 517.892 411.953 517.71 411.09 517.32V517.32ZM435.27 531.27L418.17 521.41C416.77 520.61 416.94 519.2 418.56 518.27L434.87 508.86C435.698 508.4 436.622 508.14 437.569 508.102C438.515 508.064 439.458 508.248 440.32 508.64L457.41 518.49C458.81 519.3 458.63 520.71 457.03 521.63L440.72 531.05C439.892 531.509 438.967 531.768 438.021 531.807C437.075 531.845 436.133 531.661 435.27 531.27V531.27ZM459.45 545.22L442.36 535.35C440.96 534.54 441.14 533.15 442.74 532.21L459.07 522.81C459.892 522.345 460.813 522.082 461.756 522.04C462.7 521.998 463.64 522.18 464.5 522.57L481.61 532.44C483.01 533.24 482.83 534.64 481.21 535.58L464.9 544.98C464.074 545.443 463.15 545.706 462.204 545.748C461.257 545.79 460.314 545.609 459.45 545.22V545.22ZM483.62 559.14L466.52 549.29C465.12 548.49 465.3 547.08 466.92 546.15L483.22 536.73C484.049 536.273 484.974 536.016 485.92 535.98C486.866 535.943 487.808 536.128 488.67 536.52L505.77 546.37C507.16 547.17 506.98 548.59 505.38 549.51L489.05 558.92C488.226 559.38 487.305 559.64 486.362 559.68C485.419 559.72 484.48 559.539 483.62 559.15V559.14ZM507.8 573.1L490.7 563.22C489.3 562.43 489.48 561.02 491.08 560.08L507.41 550.68C508.234 550.219 509.155 549.959 510.098 549.919C511.041 549.879 511.98 550.061 512.84 550.45L529.94 560.32C531.33 561.12 531.15 562.52 529.54 563.46L513.22 572.86C512.396 573.321 511.476 573.582 510.532 573.621C509.589 573.661 508.65 573.479 507.79 573.09L507.8 573.1ZM531.98 587.03L514.87 577.17C513.47 576.37 513.65 574.96 515.27 574.03L531.58 564.62C532.408 564.161 533.333 563.902 534.279 563.863C535.225 563.825 536.167 564.009 537.03 564.4L554.12 574.25C555.52 575.05 555.34 576.47 553.74 577.39L537.41 586.81C536.584 587.267 535.664 587.525 534.721 587.563C533.778 587.601 532.84 587.419 531.98 587.03V587.03ZM586.07 618.24L539.08 591.12C537.68 590.32 537.85 588.91 539.46 587.98L555.77 578.57C556.598 578.111 557.523 577.852 558.469 577.813C559.415 577.775 560.357 577.959 561.22 578.35L608.21 605.47C609.61 606.26 609.43 607.67 607.81 608.6L591.5 618C590.676 618.459 589.756 618.72 588.813 618.762C587.871 618.803 586.932 618.625 586.07 618.24V618.24ZM266.05 433.68L242.73 420.23C241.27 419.43 241.52 418.02 243.12 417.09L259.44 407.69C260.264 407.225 261.187 406.962 262.132 406.922C263.078 406.882 264.019 407.067 264.88 407.46L288.19 420.91C289.59 421.71 289.41 423.12 287.81 424.05L271.51 433.46C270.681 433.923 269.755 434.185 268.806 434.223C267.858 434.261 266.913 434.075 266.05 433.68V433.68ZM680.74 563.63L337.4 365.64C335.93 364.85 336.18 363.44 337.8 362.51L345.96 357.81C346.785 357.348 347.708 357.086 348.653 357.046C349.598 357.006 350.539 357.189 351.4 357.58L694.74 555.57C696.14 556.37 695.96 557.77 694.34 558.71L686.2 563.44C685.37 563.896 684.445 564.152 683.499 564.187C682.552 564.221 681.611 564.034 680.75 563.64L680.74 563.63Z" fill="#232449"/>
<path d="M468.04 586.15C467.548 587.216 466.709 588.083 465.66 588.61L371.2 643.1C369.609 643.984 367.834 644.483 366.016 644.557C364.198 644.632 362.388 644.28 360.73 643.53L199.23 550.42C198.534 550.065 197.972 549.493 197.63 548.79C197.05 547.32 197.87 545.69 200.01 544.46L294.5 489.96C296.091 489.077 297.867 488.579 299.685 488.506C301.503 488.433 303.313 488.787 304.97 489.54L466.48 582.65C467.13 582.933 467.652 583.449 467.942 584.096C468.232 584.744 468.271 585.476 468.05 586.15H468.04Z" fill="#575981"/>
<path d="M468.04 586.15C467.548 587.216 466.709 588.083 465.66 588.61L371.19 643.09C369.6 643.974 367.824 644.474 366.006 644.549C364.188 644.623 362.378 644.271 360.72 643.52L199.22 550.41C198.524 550.055 197.962 549.483 197.62 548.78C198.121 547.723 198.958 546.862 200 546.33L294.49 491.84C296.08 490.956 297.855 490.456 299.673 490.38C301.491 490.304 303.301 490.653 304.96 491.4L466.47 584.53C467.16 584.89 467.71 585.45 468.04 586.15Z" fill="#383961"/>
<path d="M706.87 548.62L363.52 350.62C362.766 350.061 362.153 349.335 361.728 348.498C361.302 347.662 361.077 346.738 361.07 345.8V341.77C361.07 339.9 362.2 339.05 363.6 339.87L706.95 537.85C707.718 538.398 708.346 539.119 708.784 539.954C709.222 540.79 709.457 541.717 709.47 542.66V546.69C709.4 548.57 708.27 549.42 706.87 548.62V548.62Z" fill="#232449"/>
<path opacity="0.3" d="M721.3 528.44L352.7 315.87L352.89 43.48C352.89 40.7 354.85 39.57 357.27 40.93L717.11 248.47C718.385 249.3 719.446 250.419 720.207 251.736C720.968 253.053 721.408 254.531 721.49 256.05L721.3 528.44Z" fill="url(#paint0_linear)"/>
<path d="M722.16 537.78L362.32 330.28C357.27 327.35 353.19 319.55 353.19 312.83V45.45C353.19 38.73 357.27 35.64 362.32 38.55L722.16 246.1C727.21 249 731.3 256.8 731.3 263.54V530.89C731.3 537.64 727.21 540.71 722.16 537.79V537.78Z" fill="#141530"/>
<path d="M576.46 213.9L552.03 199.81V191.01L576.46 205.1V213.9Z" fill="#4F41AA" fill-opacity="0.7"/>
<path d="M632.93 246.49L581.03 216.53V207.73L632.93 237.69V246.49Z" fill="#D1B962" fill-opacity="0.7"/>
<path d="M576.46 242.06L552.03 228V219.2L576.46 233.27V242.06Z" fill="#4F41AA" fill-opacity="0.7"/>
<path d="M598.23 254.83L581.03 244.71V235.91L598.23 246.03V254.83Z" fill="#3824FD" fill-opacity="0.7"/>
<path d="M576.46 256.15L552.03 242.06V233.26L576.46 247.35V256.15Z" fill="#4F41AA" fill-opacity="0.7"/>
<path d="M610.03 275.5L581.03 258.78V249.98L610.03 266.7V275.5Z" fill="#3824FD" fill-opacity="0.7"/>
<path d="M576.46 270.22L552.03 256.15V247.35L576.46 261.43V270.22Z" fill="#4F41AA" fill-opacity="0.7"/>
<path d="M657.52 316.87L581.03 272.87V264.07L657.53 308.08L657.52 316.87Z" fill="#B75E3B" fill-opacity="0.7"/>
<path d="M576.46 227.99L552.03 213.9V205.1L576.46 219.19V227.99ZM676.31 285.63L581.03 230.63V221.82L676.31 276.82V285.63ZM576.46 284.3L552.03 270.22V261.42L576.46 275.5V284.3Z" fill="#4F41AA" fill-opacity="0.7"/>
<path d="M663.45 335.36L581.03 286.96V278.16L663.45 326.56V335.36Z" fill="#8E29B8" fill-opacity="0.7"/>
<path d="M576.46 312.48L552.03 298.4V289.6L576.46 303.68V312.48ZM677.2 370.57L581.03 315.12V306.32L677.2 361.77V370.57ZM576.46 326.56L552.03 312.48V303.68L576.46 317.75V326.56Z" fill="#4F41AA" fill-opacity="0.7"/>
<path d="M610.03 345.93L581.03 329.19V320.4L610.03 337.13V345.93Z" fill="#8E29B8" fill-opacity="0.7"/>
<path d="M576.46 340.65L552.03 326.55V317.75L576.46 331.85V340.65Z" fill="#4F41AA" fill-opacity="0.7"/>
<path d="M640.3 377.61L581.03 343.28V334.48L640.29 368.81L640.3 377.61Z" fill="#3824FD" fill-opacity="0.7"/>
<path d="M576.46 298.4L552.03 284.3V275.5L576.46 289.6V298.4Z" fill="#4F41AA" fill-opacity="0.7"/>
<path d="M591.72 307.2L581.03 301.03V292.23L591.72 298.4V307.2Z" fill="#3824FD" fill-opacity="0.7"/>
<path d="M576.46 354.73L552.03 340.65V331.85L576.46 345.93V354.73Z" fill="#4F41AA" fill-opacity="0.7"/>
<path d="M619.28 379.38L581.03 357.37V348.57L619.28 370.57V379.38Z" fill="#8E29B8" fill-opacity="0.7"/>
<path d="M576.46 382.9L552.03 368.8V360L576.46 374.1V382.9Z" fill="#4F41AA" fill-opacity="0.7"/>
<path d="M636.85 417.31L581.03 385.53V376.73L636.85 408.51V417.31Z" fill="#B75E3B" fill-opacity="0.7"/>
<path d="M576.46 396.98L552.03 382.9V374.1L576.46 388.18V396.98ZM588 404.02L581.03 399.62V390.82L588 395.22V404.02ZM576.46 411.05L552.03 396.98V388.18L576.46 402.25V411.05Z" fill="#4F41AA" fill-opacity="0.7"/>
<path d="M613.04 432.12L581.04 413.7V404.9L613.04 423.31V432.12Z" fill="#D1B962" fill-opacity="0.7"/>
<path d="M576.46 368.8L552.03 354.73V345.92L576.46 360V368.8Z" fill="#4F41AA" fill-opacity="0.7"/>
<path d="M625.57 396.98L581.03 371.44V362.65L625.57 388.18V396.98Z" fill="#3824FD" fill-opacity="0.7"/>
<path d="M418.46 125.88L394.03 111.8V103L418.46 117.08V125.88Z" fill="#4F41AA" fill-opacity="0.7"/>
<path d="M526.83 188.37L423.03 128.52V119.72L526.83 179.57V188.37Z" fill="#8E29B8" fill-opacity="0.7"/>
<path d="M418.46 154.04L394.04 139.96V131.16L418.46 145.24V154.04Z" fill="#4F41AA" fill-opacity="0.7"/>
<path d="M491.72 196.3L423.04 156.68V147.88L491.72 187.49V196.3Z" fill="#D1B962" fill-opacity="0.7"/>
<path d="M418.46 168.13L394.03 154.04V145.24L418.46 159.33V168.13Z" fill="#4F41AA" fill-opacity="0.7"/>
<path d="M508.51 220.05L423.03 170.77V161.97L508.51 211.25V220.05Z" fill="#B75E3B" fill-opacity="0.7"/>
<path d="M418.47 182.2L394.04 168.13V159.33L418.47 173.4V182.2ZM482.56 219.18L423.04 184.85V176.05L482.56 210.38V219.18ZM418.47 139.96L394.04 125.86V117.08L418.47 131.15V139.96Z" fill="#4F41AA" fill-opacity="0.7"/>
<path d="M474.93 172.53L423.03 142.61V133.81L474.93 163.73V172.53Z" fill="#3824FD" fill-opacity="0.7"/>
<path d="M418.46 196.3L394.04 182.2V173.4L418.46 187.5V196.3Z" fill="#4F41AA" fill-opacity="0.7"/>
<path d="M453.56 216.53L423.04 198.93V190.13L453.56 207.73V216.53Z" fill="#8E29B8" fill-opacity="0.7"/>
<path d="M418.46 224.46L394.04 210.36V201.58L418.46 215.65V224.46Z" fill="#4F41AA" fill-opacity="0.7"/>
<path d="M519.2 282.56L423.03 227.1V218.3L519.2 273.75V282.56Z" fill="#D1B962" fill-opacity="0.7"/>
<path d="M418.46 238.54L394.03 224.46V215.66L418.46 229.74V238.54Z" fill="#4F41AA" fill-opacity="0.7"/>
<path d="M452.04 257.9L423.04 241.18V232.38L452.04 249.1V257.9Z" fill="#B75E3B" fill-opacity="0.7"/>
<path d="M418.46 252.63L394.03 238.54V229.74L418.46 243.82V252.63ZM508.52 304.55L423.04 255.27V246.47L508.52 295.77V304.55ZM418.46 210.38L394.03 196.29V187.49L418.46 201.58V210.38Z" fill="#4F41AA" fill-opacity="0.7"/>
<path d="M503.93 259.67L423.03 213.02V204.22L503.93 250.86V259.67Z" fill="#3824FD" fill-opacity="0.7"/>
<path d="M418.46 266.7L394.04 252.62V243.82L418.46 257.9V266.7Z" fill="#4F41AA" fill-opacity="0.7"/>
<path d="M433.72 275.5L423.04 269.35V260.55L433.72 266.7V275.5Z" fill="#8E29B8" fill-opacity="0.7"/>
<path d="M418.46 294.88L394.03 280.78V271.98L418.46 286.08V294.88Z" fill="#4F41AA" fill-opacity="0.7"/>
<path d="M442.88 308.95L423.04 297.51V288.71L442.88 300.15V308.95Z" fill="#D1B962" fill-opacity="0.7"/>
<path d="M418.46 308.95L394.04 294.88V286.08L418.46 300.15V308.95Z" fill="#4F41AA" fill-opacity="0.7"/>
<path d="M474.93 341.53L423.03 311.6V302.8L474.93 332.73V341.53Z" fill="#B75E3B" fill-opacity="0.7"/>
<path d="M418.46 323.04L394.04 308.95V300.15L418.46 314.24V323.04ZM505.46 373.2L423.04 325.67V316.87L505.46 364.4V373.2ZM418.46 280.79L394.03 266.7V257.9L418.46 271.99V280.79Z" fill="#4F41AA" fill-opacity="0.7"/>
<path d="M526.84 343.28L423.04 283.43V274.63L526.84 334.48V343.28Z" fill="#3824FD" fill-opacity="0.7"/>
<path d="M269.07 243.2L178.54 191C172.85 187.75 168.24 178.93 168.24 171.36V29.09C168.24 21.51 172.85 18.05 178.54 21.32L269.07 73.53C274.75 76.78 279.36 85.6 279.36 93.17V235.47C279.36 243.04 274.75 246.48 269.07 243.2V243.2Z" fill="#3D4077"/>
<path d="M272.69 245.28L275.79 243.76L273.69 239.66L272.69 245.28ZM169.94 21.72C170.84 21.18 171.81 20.72 172.8 20.34L175.1 24.88L169.94 21.72Z" fill="#3D4077"/>
<path d="M266.7 244.4L176.16 192.16C170.48 188.91 165.87 180.09 165.87 172.52V30.28C165.87 22.7 170.47 19.23 176.16 22.51L266.7 74.72C272.38 77.97 276.98 86.78 276.98 94.35V236.62C276.98 244.19 272.38 247.67 266.7 244.39V244.4Z" fill="#232449"/>
<path d="M192.62 52.17L176.16 42.67V36.75L192.62 46.25V52.17Z" fill="#4F41AA" fill-opacity="0.7"/>
<path d="M265.67 94.3L195.7 53.95V48.03L265.66 88.37L265.67 94.3Z" fill="#8E29B8" fill-opacity="0.7"/>
<path d="M192.62 71.16L176.16 61.66V55.74L192.62 65.24V71.16Z" fill="#4F41AA" fill-opacity="0.7"/>
<path d="M242 99.64L195.71 72.94V67L242.01 93.7L242 99.64Z" fill="#D1B962" fill-opacity="0.7"/>
<path d="M192.62 80.65L176.16 71.16V65.23L192.62 74.71V80.65Z" fill="#4F41AA" fill-opacity="0.7"/>
<path d="M253.32 115.66L195.72 82.43V76.5L253.32 109.73V115.66Z" fill="#B75E3B" fill-opacity="0.7"/>
<path d="M192.62 90.14L176.16 80.64V74.71L192.62 84.21V90.14ZM235.84 115.06L195.7 91.93V85.99L235.83 109.13L235.84 115.06ZM192.62 61.67L176.16 52.17V46.24L192.62 55.74V61.67Z" fill="#4F41AA" fill-opacity="0.7"/>
<path d="M230.69 83.62L195.71 63.44V57.51L230.69 77.68V83.62Z" fill="#3824FD" fill-opacity="0.7"/>
<path d="M192.62 99.64L176.16 90.14V84.21L192.62 93.71V99.64Z" fill="#4F41AA" fill-opacity="0.7"/>
<path d="M216.28 113.28L195.71 101.41V95.48L216.28 107.34V113.28Z" fill="#8E29B8" fill-opacity="0.7"/>
<path d="M192.62 118.61L176.16 109.13V103.2L192.62 112.7V118.61Z" fill="#4F41AA" fill-opacity="0.7"/>
<path d="M260.53 157.77L195.7 120.4V114.47L260.52 151.84L260.53 157.77Z" fill="#D1B962" fill-opacity="0.7"/>
<path d="M192.62 128.1L176.16 118.62V112.68L192.62 122.18V128.1Z" fill="#4F41AA" fill-opacity="0.7"/>
<path d="M215.25 141.17L195.71 129.9V123.96L215.25 135.23V141.17Z" fill="#B75E3B" fill-opacity="0.7"/>
<path d="M192.62 137.6L176.16 128.1V122.18L192.62 131.68V137.6ZM253.32 172.6L195.72 139.38V133.46L253.32 166.67V172.6ZM192.62 109.13L176.16 99.63V93.71L192.62 103.2V109.13Z" fill="#4F41AA" fill-opacity="0.7"/>
<path d="M250.23 142.36L195.71 110.91V104.98L250.23 136.43V142.36Z" fill="#3824FD" fill-opacity="0.7"/>
<path d="M192.62 147.1L176.16 137.6V131.67L192.62 141.17V147.1Z" fill="#4F41AA" fill-opacity="0.7"/>
<path d="M202.9 153.03L195.71 148.87V142.94L202.91 147.1L202.9 153.03Z" fill="#8E29B8" fill-opacity="0.7"/>
<path d="M192.62 166.08L176.16 156.59V150.66L192.62 160.16V166.08Z" fill="#4F41AA" fill-opacity="0.7"/>
<path d="M209.09 175.57L195.71 167.87V161.93L209.09 169.64V175.57Z" fill="#D1B962" fill-opacity="0.7"/>
<path d="M192.62 175.57L176.16 166.07V160.15L192.62 169.64V175.57Z" fill="#4F41AA" fill-opacity="0.7"/>
<path d="M230.69 197.53L195.71 177.36V171.43L230.69 191.59V197.53Z" fill="#B75E3B" fill-opacity="0.7"/>
<path d="M192.62 185.07L176.16 175.57V169.64L192.62 179.14V185.07ZM251.26 218.89L195.71 186.84V180.91L251.26 212.96V218.89ZM192.62 156.6L176.16 147.1V141.17L192.62 150.67V156.6Z" fill="#4F41AA" fill-opacity="0.7"/>
<path d="M265.67 198.72L195.71 158.37V152.44L265.67 192.78V198.72Z" fill="#3824FD" fill-opacity="0.7"/>
<path d="M99.1 106.03L28.8 65.48C24.38 62.96 20.8 56.1 20.8 50.22V6.99999C20.8 1.11999 24.38 -1.57001 28.8 0.969994L99.1 41.5C103.51 44.03 107.1 50.88 107.1 56.76V100C107.1 105.9 103.51 108.56 99.1 106.02V106.03Z" fill="#32356F"/>
<path d="M101.92 107.64L104.32 106.46L102.7 103.27L101.92 107.64ZM22.1 1.27001C22.81 0.850012 23.56 0.490012 24.33 0.200012L26.11 3.72001L22.1 1.27001Z" fill="#32356F"/>
<path d="M97.26 106.95L26.94 66.38C22.52 63.85 18.94 57 18.94 51.12V7.92002C18.94 2.03002 22.52 -0.669979 26.94 1.88002L97.26 42.44C101.67 44.96 105.25 51.8 105.25 57.68V100.91C105.25 106.79 101.67 109.5 97.25 106.95H97.26Z" fill="#1F2149"/>
<path d="M39.72 24.92L26.94 17.55V12.94L39.72 20.31V24.92Z" fill="#4F41AA" fill-opacity="0.7"/>
<path d="M96.46 57.64L42.12 26.3V21.7L96.46 53.03V57.64Z" fill="#8E29B8" fill-opacity="0.7"/>
<path d="M39.72 39.67L26.94 32.3V27.69L39.72 35.06V39.67Z" fill="#4F41AA" fill-opacity="0.7"/>
<path d="M78.08 61.79L42.12 41.05V36.45L78.08 57.18V61.79Z" fill="#D1B962" fill-opacity="0.7"/>
<path d="M39.72 47.04L26.94 39.67V35.07L39.72 42.43V47.04Z" fill="#4F41AA" fill-opacity="0.7"/>
<path d="M86.87 74.23L42.12 48.43V43.82L86.87 69.62V74.23Z" fill="#B75E3B" fill-opacity="0.7"/>
<path d="M39.72 54.41L26.94 47.04V42.43L39.72 49.8V54.41ZM73.3 73.77L42.11 55.8V51.2L73.3 69.15V73.77ZM39.72 32.3L26.94 24.92V20.32L39.72 27.69V32.3Z" fill="#4F41AA" fill-opacity="0.7"/>
<path d="M69.3 49.35L42.11 33.67V29.07L69.3 44.73V49.35Z" fill="#3824FD" fill-opacity="0.7"/>
<path d="M39.72 61.79L26.94 54.4V49.8L39.72 57.17V61.79Z" fill="#4F41AA" fill-opacity="0.7"/>
<path d="M58.1 72.38L42.12 63.17V58.56L58.1 67.77V72.38Z" fill="#8E29B8" fill-opacity="0.7"/>
<defs>
<linearGradient id="paint0_linear" x1="352.7" y1="284.4" x2="721.49" y2="284.4" gradientUnits="userSpaceOnUse">
<stop offset="0.21" stop-color="white" stop-opacity="0"/>
<stop offset="1" stop-color="white" stop-opacity="0.2"/>
</linearGradient>
</defs>
</svg>
