<?xml version="1.0" ?><!DOCTYPE svg  PUBLIC '-//W3C//DTD SVG 1.1//EN'  'http://www.w3.org/Graphics/SVG/1.1/DTD/svg11.dtd'><svg height="512px" id="形状_1_1_" style="enable-background:new 0 0 512 512;" version="1.1" viewBox="0 0 512 512" width="512px" xml:space="preserve" xmlns="http://www.w3.org/2000/svg" xmlns:xlink="http://www.w3.org/1999/xlink"><g id="形状_1"><g><path d="M485.165,206.271c-1.578-2.3-3.458-3.877-11.299-4.475    c-2.055-0.157-8.846-0.38-20.271-0.38c-30.028,0-50.433,9.109-60.878,27.096c2.879-18.095-14.755-27.149-52.946-27.149    c-44.834,0-72.832,18.055-83.98,54.159c-4.147,13.428-4.569,24.425-1.311,33.019l-10.582,0.712    c-8.269,0.634-19.146,1.19-25.815,1.19c-16.403,0-26.588-2.75-30.526-8.253c-3.53-4.942-3.183-14.119,0.939-27.499    c6.846-22.167,23.799-32.145,50.891-32.145c14.042-0.028,27.717,1.476,27.725,1.476v-0.005c1.883-0.118,2.717-2.077,2.507-3.702    l-0.272-2.119l-0.961-7.451c-0.635-4.895-4.279-7.801-10.936-8.699c-6.086-0.41-10.615-0.683-17.279-0.683    c-0.125,0-0.248,0.004-0.367,0.004c-35.412,0.08-60.089,11.708-74.036,34.878c5.125-23.255-11.246-34.882-49.174-34.882    c-21.08,0-36.197,0.594-45.364,1.79c-7.029,0.873-11.313,3.789-12.865,8.726l-3.001,9.572c-0.547,1.754,0.298,2.623,2.547,2.623    l0.067-0.012c1.667-0.211,8.083-0.841,19.043-1.72c14.499-1.158,25.256-1.742,32.321-1.742c20.87,0,29.657,5.228,26.386,15.671    c-0.712,2.313-2.301,3.747-4.734,4.303c-19.739,3.271-35.41,5.631-47,7.06c-32.616,4.15-51.459,14.303-56.535,30.489    c-6.961,22.243,10.483,33.369,52.309,33.369c20.862,0,38.375-1.224,52.531-3.601c8.157-1.368,12.291-3.459,13.93-8.713    l7.778-24.794c-0.81,24.776,16.569,37.254,52.166,37.254c15.412,0,30.025-0.508,36.922-1.706    c7.299-1.266,10.788-2.852,12.399-8.359l1.579-7.815c7.583,11.822,24.224,17.734,49.912,17.734    c27.092,0,42.892-0.761,47.399-2.271c3.776-1.2,6.108-3.15,6.939-5.86c0.16-0.483,0.247-0.997,0.331-1.555l3.245-10.526    c0.567-1.828-0.281-2.703-2.505-2.626l-17.343,0.832c-11.573,0.631-20.638,0.958-27.178,0.958    c-12.313,0-20.759-0.833-25.378-2.515c-6.85-2.635-10.108-7.887-9.798-15.792l54.927-7.042    c24.619-3.146,41.091-10.724,49.432-22.732l-18.611,64.817c-0.354,1.224-0.211,2.208,0.411,2.936    c0.696,0.812,1.883,1.202,3.639,1.202h22.73c3.972,0,5.391-2.051,5.886-3.769l20.091-69.965    c2.645-9.207,11.113-13.685,25.886-13.685c13.335,0,23.387,0.118,29.816,0.354c0.171,0.012,0.335,0.02,0.498,0.02    c1.256,0,3.522-0.457,4.649-3.5l3.53-9.606C486.254,209.309,486.12,207.665,485.165,206.271z M118.745,290.442    c-7.103,1.111-17.294,1.669-30.61,1.669c-23.102,0-33.208-4.661-30.281-13.989c2.102-6.692,8.153-10.718,18.21-12.072    l52.554-7.059L118.745,290.442z M361.652,233.758c-2.21,7.173-12.495,12.081-30.827,14.718l-43.782,6.215l1.109-3.584    c3.623-11.792,8.786-19.835,15.441-24.102c6.652-4.26,17.49-6.405,32.504-6.405C355.845,220.6,364.357,224.998,361.652,233.758z" style="fill-rule:evenodd;clip-rule:evenodd;fill:#78BC27;"/></g></g></svg>