<?xml version="1.0" ?><svg height="36" id="svg4488" version="1.1" width="36" xmlns="http://www.w3.org/2000/svg" xmlns:cc="http://creativecommons.org/ns#" xmlns:dc="http://purl.org/dc/elements/1.1/" xmlns:inkscape="http://www.inkscape.org/namespaces/inkscape" xmlns:rdf="http://www.w3.org/1999/02/22-rdf-syntax-ns#" xmlns:sodipodi="http://sodipodi.sourceforge.net/DTD/sodipodi-0.dtd" xmlns:svg="http://www.w3.org/2000/svg"><defs id="defs4490"/><g id="layer1" transform="translate(0,-1016.3622)"><g id="g4047" transform="translate(606.99977,-37.99871)"><path d="m 507.21484,395.21289 19,0 c -0.0297,0 0,-0.0117 0,0.0703 l 0,6.85742 c 0,0.082 -0.0297,0.0703 0,0.0703 l -1.42187,0 c -0.053,-0.009 -0.10712,-0.009 -0.16016,0 l -10.84375,0 c -0.0271,-0.004 -0.0546,-0.006 -0.082,-0.006 -0.0209,6.4e-4 -0.0418,0.003 -0.0625,0.006 l -6.42969,0 c 0.0297,0 0,0.0117 0,-0.0703 l 0,-2.42968 0,-2 0,-2.42774 c 0,-0.082 0.0297,-0.0703 0,-0.0703 z m -2,1.99831 1,0 0,3 -1,0 z m 9,5.99974 10,0 0,1.28125 c 0,0.2365 -0.0761,0.4401 -0.16796,0.5625 -0.0919,0.1224 -0.17278,0.15625 -0.24805,0.15625 l -9.16797,0 c -0.0753,0 -0.15615,-0.034 -0.24805,-0.15625 -0.0919,-0.1224 -0.16797,-0.326 -0.16797,-0.5625 z m 2,3 1,0 0,2.5 c 0,0.2857 -0.21435,0.5 -0.5,0.5 -0.28565,0 -0.5,-0.2143 -0.5,-0.5 z m 5,0 1,0 0,2.5 c 0,0.2857 -0.21435,0.5 -0.5,0.5 -0.28565,0 -0.5,-0.2143 -0.5,-0.5 z" id="path4049" style="font-size:medium;font-style:normal;font-variant:normal;font-weight:normal;font-stretch:normal;text-indent:0;text-align:start;text-decoration:none;line-height:normal;letter-spacing:normal;word-spacing:normal;text-transform:none;direction:ltr;block-progression:tb;writing-mode:lr-tb;text-anchor:start;baseline-shift:baseline;color:#000000;fill:#000000;fill-opacity:1;fill-rule:nonzero;stroke:none;visibility:visible;display:inline;overflow:visible;enable-background:accumulate;font-family:sans-serif" transform="translate(-1100.2142,676.14997)"/><path d="m 508.71484,383.21094 8.5,0 0,0.46484 0,2.03516 0,0.5 -8.5,0 c -0.28566,0 -0.5,-0.2143 -0.5,-0.5 l 0,-2 c 0,-0.2856 0.21434,-0.5 0.5,-0.5 z m 9.5,1 4,0 0,1 -4,0 z" id="path4059" style="font-size:medium;font-style:normal;font-variant:normal;font-weight:normal;font-stretch:normal;text-indent:0;text-align:start;text-decoration:none;line-height:normal;letter-spacing:normal;word-spacing:normal;text-transform:none;direction:ltr;block-progression:tb;writing-mode:lr-tb;text-anchor:start;baseline-shift:baseline;color:#000000;fill:#000000;fill-opacity:1;fill-rule:nonzero;stroke:none;visibility:visible;display:inline;overflow:visible;enable-background:accumulate;font-family:sans-serif" transform="translate(-1100.2142,676.14997)"/><path d="m -601.96875,1060.3613 c -0.59643,0 -1.13024,0.1528 -1.50195,0.5215 -0.37172,0.3687 -0.52149,0.8964 -0.52149,1.4785 l -0.008,11 c 0,0.5834 0.15363,1.1107 0.52148,1.4785 0.36786,0.3679 0.89519,0.5215 1.47852,0.5215 l 5.91599,0 0,-1 -5.91599,0 c -0.41667,0 -0.63934,-0.096 -0.77148,-0.2285 -0.13185,-0.1318 -0.22807,-0.3547 -0.22852,-0.7695 l 0,0 0.008,-10.998 0,0 c 0,-0.4179 0.0942,-0.6382 0.22657,-0.7695 0.13235,-0.1313 0.36205,-0.2305 0.79687,-0.2305 l 8.98655,0 0,-1 -8.98655,0 z" id="path4063" style="font-size:medium;font-style:normal;font-variant:normal;font-weight:normal;font-stretch:normal;text-indent:0;text-align:start;text-decoration:none;line-height:normal;letter-spacing:normal;word-spacing:normal;text-transform:none;direction:ltr;block-progression:tb;writing-mode:lr-tb;text-anchor:start;baseline-shift:baseline;color:#000000;fill:#000000;fill-opacity:1;fill-rule:evenodd;stroke:none;visibility:visible;display:inline;overflow:visible;enable-background:accumulate;font-family:sans-serif"/></g></g></svg>