<?xml version="1.0" ?><svg height="32" id="svg2" version="1.1" viewBox="0 0 32 32.000001" width="32" xmlns="http://www.w3.org/2000/svg" xmlns:cc="http://creativecommons.org/ns#" xmlns:dc="http://purl.org/dc/elements/1.1/" xmlns:inkscape="http://www.inkscape.org/namespaces/inkscape" xmlns:rdf="http://www.w3.org/1999/02/22-rdf-syntax-ns#" xmlns:sodipodi="http://sodipodi.sourceforge.net/DTD/sodipodi-0.dtd" xmlns:svg="http://www.w3.org/2000/svg"><defs id="defs4"/><g id="layer1" transform="translate(0,-1020.3622)"><g id="g7689" transform="translate(225.49997,1.7382813e-5)"><path d="M 4,1 C 2.875,1 2.05675,1.4452 1.59375,2.0625 1.13075,2.6798 1,3.4167 1,4 L 1,8.5 C 1.0000262,8.7617922 1.2382078,8.9999738 1.5,9 L 2,9 3,9 3.5,9 C 3.7617922,8.9999738 3.9999738,8.7617922 4,8.5 L 4,7 C 4,6.5833999 4.0865396,6.3794 4.21875,6.25 4.35096,6.1206 4.60371,6.0182999 5.03125,6 L 6.5,6 C 6.7617922,5.9999738 6.9999738,5.7617922 7,5.5 L 7,5 7.5,5 C 7.7617922,4.9999738 7.9999738,4.7617922 8,4.5 l 0,-2 C 7.9999738,2.2382078 7.7617922,2.0000262 7.5,2 L 7,2 7,1.5 C 6.9999739,1.2382077 6.7617923,1.0000262 6.5,1 z M 20.90625,2 C 20.34063,2.015 19.64648,2.15575 19.0625,2.59375 18.44517,3.0567494 18,3.875 18,5 L 18,25.59375 18,29 c 0,0.875 -0.30483,1.30675 -0.6875,1.59375 C 16.92983,30.880751 16.41667,31 16,31 L 13.1875,31 5,31 C 4.58333,31 4.07017,30.880751 3.6875,30.59375 3.3048301,30.30675 3,29.875 3,29 L 3,17.875 3,15 c 0,-1.75 1.2500003,-3 3,-3 l 1.59375,0 0,-1 L 6,11 c -1.2149686,5.41e-4 -2.2737872,0.519469 -3,1.34375 L 3,10 2,10 2,15 2,29 c 0,1.125 0.4451699,1.94325 1.0625,2.40625 C 3.67983,31.86925 4.41667,32 5,32 L 13.1875,32 16,32 c 0.58333,0 1.32017,-0.13075 1.9375,-0.59375 C 18.55483,30.94325 19,30.125 19,29 L 19,8.40625 19,5 C 19,4.125 19.30483,3.69325 19.6875,3.40625 20.07017,3.11925 20.58333,3 21,3 l 1,0 c 0.41667,0 0.92983,0.11925 1.3125,0.40625 C 23.69517,3.69325 24,4.125 24,5 L 24,25.59375 24,29 c 0,1.125 0.44517,1.94325 1.0625,2.40625 0.55065,0.413 1.20496,0.56545 1.75,0.59375 L 27,32 l 0.1875,0 c 0.54504,-0.028 1.19935,-0.18075 1.75,-0.59375 C 29.55483,30.943251 30,30.125 30,29 l 0,-10.09375 -1,0 L 29,29 c 0,0.875 -0.30483,1.30675 -0.6875,1.59375 C 27.92983,30.880751 27.41667,31 27,31 26.58333,31 26.07017,30.880751 25.6875,30.59375 25.30483,30.30675 25,29.875 25,29 L 25,8.40625 25,5 C 25,3.875 24.55483,3.05675 23.9375,2.59375 23.32017,2.13075 22.58333,2 22,2 z M 29.5,9 C 29.238199,9.00408 28.995904,9.238199 29,9.5 l 0,2.5 -0.5,0 c -0.261792,2.6e-5 -0.499974,0.238208 -0.5,0.5 l 0,4 c 0,0.4167 0.20269,0.76525 0.46875,1.03125 0.151499,0.151516 0.326204,0.293046 0.53125,0.375 0.333333,0.08411 0.686199,0.104018 1,0 0.205046,-0.08195 0.379751,-0.223484 0.53125,-0.375 C 30.79731,17.26525 31,16.9167 31,16.5 l 0,-4 C 30.999974,12.238208 30.761792,12.000026 30.5,12 L 30,12 30,9.5 C 30.004178,9.2329913 29.767009,8.9958221 29.5,9 z M 9,10 c -0.1819776,1.8e-5 -0.3504007,0.123142 -0.4375,0.28125 l 0,2.4375 C 8.6495994,12.876858 8.8180225,12.999982 9,13 l 1.5,0 c 0.41667,0 0.62061,0.08615 0.75,0.21875 0.12939,0.1322 0.23174,0.385 0.25,0.8125 l 0,1.46875 c 2.6e-5,0.261792 0.238208,0.499974 0.5,0.5 l 0.5,0 0,0.5 c 2.6e-5,0.261792 0.238208,0.499974 0.5,0.5 l 2,0 c 0.261792,-2.6e-5 0.499974,-0.238208 0.5,-0.5 l 0,-0.5 0.5,0 c 0.261792,-2.6e-5 0.499974,-0.238208 0.5,-0.5 l 0,-2.5 c 0,-1.125 -0.44517,-1.94325 -1.0625,-2.40625 C 14.82017,10.130791 14.08333,10 13.5,10 z" id="path5648-6" style="font-size:medium;font-style:normal;font-variant:normal;font-weight:normal;font-stretch:normal;text-indent:0;text-align:start;text-decoration:none;line-height:normal;letter-spacing:normal;word-spacing:normal;text-transform:none;direction:ltr;block-progression:tb;writing-mode:lr-tb;text-anchor:start;baseline-shift:baseline;color:#000000;fill:#000000;fill-opacity:1;fill-rule:nonzero;stroke:none;visibility:visible;display:inline;overflow:visible;enable-background:accumulate;font-family:sans-serif" transform="translate(-225.49997,1020.3622)"/></g></g></svg>