<?xml version="1.0" ?><svg height="60px" version="1.1" viewBox="0 0 60 60" width="60px" xmlns="http://www.w3.org/2000/svg" xmlns:xlink="http://www.w3.org/1999/xlink"><title/><desc/><defs/><g fill="none" fill-rule="evenodd" id="Page-1" stroke="none" stroke-width="1"><g id="Social_icons" transform="translate(-522.000000, -1855.000000)"><g id="Mi" transform="translate(522.000000, 1855.000000)"><path d="M0,30 C0,13.4314567 13.4314567,0 30,0 C46.5685433,0 60,13.4314567 60,30 C60,46.5685433 46.5685433,60 30,60 C13.4314567,60 0,46.5685433 0,30 Z" fill="#FF6700" id="back"/><path d="M45.6636735,20 L41.3273469,20 C41.1412245,20 40.9910204,20.1469388 40.9910204,20.3265306 L40.9910204,39.8857143 C40.9910204,40.0653061 41.1412245,40.2122449 41.3273469,40.2122449 L45.6636735,40.2122449 C45.8497959,40.2122449 46,40.0653061 46,39.8857143 L46,20.3265306 C46,20.1469388 45.8465306,20 45.6636735,20 Z M30.8555102,20 L14.3363265,20 C14.1502041,20 14,20.1469388 14,20.3265306 L14,39.8857143 C14,40.0653061 14.1502041,40.2122449 14.3363265,40.2122449 L18.6726531,40.2122449 C18.8587755,40.2122449 19.0089796,40.0653061 19.0089796,39.8857143 L19.0089796,24.5355102 C19.0089796,24.3591837 19.1591837,24.2122449 19.3453061,24.2122449 L28.6906122,24.2122449 C31.3191837,24.2122449 32.0636735,26.2008163 32.0636735,27.4840816 L32.0636735,39.8857143 C32.0636735,40.0653061 32.2138776,40.2122449 32.4,40.2122449 L36.7330612,40.2122449 C36.9191837,40.2122449 37.0693878,40.0653061 37.0693878,39.8857143 L37.0693878,26.0114286 C37.0693878,24.8653061 36.9289796,23.2195918 35.4367347,21.7730612 C33.8759184,20.2612245 32.4489796,20 30.8555102,20 Z M27.8187755,27.7910204 L23.2636735,27.7910204 C23.077551,27.7910204 22.9273469,27.9379592 22.9273469,28.117551 L22.9273469,39.8889796 C22.9273469,40.0685714 23.0808163,40.2155102 23.2636735,40.2155102 L27.8187755,40.2155102 C28.0016327,40.2155102 28.155102,40.0685714 28.155102,39.8889796 L28.155102,28.1142857 C28.155102,27.9379592 28.004898,27.7910204 27.8187755,27.7910204 Z" fill="#FFFFFF" fill-rule="nonzero" id="Shape"/></g></g></g></svg>