<?xml version="1.0" ?><!DOCTYPE svg  PUBLIC '-//W3C//DTD SVG 1.1//EN'  'http://www.w3.org/Graphics/SVG/1.1/DTD/svg11.dtd'><svg enable-background="new 0 0 50 50" id="Layer_1" version="1.1" viewBox="0 0 50 50" xml:space="preserve" xmlns="http://www.w3.org/2000/svg" xmlns:xlink="http://www.w3.org/1999/xlink"><path d="M38.8,28.4c-0.1-0.2-0.1-0.4-0.1-0.6c0.3-1.6,0.3-3.3,0.1-5c-1.2-7.3-8.1-12.4-15.4-11.4  c-0.4,0.1-0.8,0-1.2-0.2c-3.1-1.7-6.9-1.1-9.4,1.4c-2.5,2.4-3.1,6.2-1.5,9.3c0.2,0.3,0.2,0.6,0.1,1c-0.2,0.7-0.2,1.5-0.2,2.3  c0,0.4,0,0.9,0.1,1.4c0.8,7.9,8.1,13.5,16,12.2c0.2,0,0.4,0,0.7,0.1c1.5,0.8,3.1,0.9,4.7,0.7C38,38.8,41,33.4,38.8,28.4z M31.9,32.1  c-0.9,1-2,1.7-3.3,2c-2.4,0.7-4.8,0.7-7.2,0c-2.2-0.7-3.7-2-4.4-4.2c-0.4-1.6,0.6-2.8,2.2-2.6c0.7,0.1,1.1,0.5,1.5,1.1  c0.2,0.4,0.4,0.7,0.5,1.1c0.6,1.2,1.5,1.9,2.9,2c1.1,0.1,2.2,0,3.2-0.4c0.4-0.2,0.7-0.4,1-0.8c0.8-0.9,0.6-2.1-0.3-2.8  c-0.9-0.7-2-0.8-3-1.1c-1.5-0.3-3-0.7-4.4-1.3c-1.5-0.7-2.7-1.6-3-3.3c-0.4-1.9,0.1-3.6,1.6-4.8c1.4-1.1,3-1.5,4.7-1.6  c0.4,0,0.8,0,1.2,0c1.6,0,3.1,0.2,4.5,0.9c1.1,0.6,2,1.3,2.5,2.4c0.3,0.6,0.4,1.1,0.2,1.7c-0.2,0.7-0.7,1.2-1.4,1.4  c-0.8,0.2-1.5,0-2-0.7c-0.2-0.3-0.5-0.7-0.7-1c-0.7-1.1-1.6-1.8-2.9-1.7c-0.6,0-1.2,0-1.8,0.1c-0.5,0.1-1,0.4-1.4,0.7  c-0.7,0.7-0.7,1.6,0.1,2.2c0.5,0.4,1.1,0.6,1.7,0.8c1.5,0.4,2.9,0.7,4.4,1.1c0.8,0.2,1.6,0.5,2.3,0.9C34,26,33.7,30.1,31.9,32.1z" fill="#01AEF2" id="S_2_"/><path d="M25,1C11.7,1,1,11.7,1,25s10.7,24,24,24s24-10.7,24-24S38.3,1,25,1z M25,44C14.5,44,6,35.5,6,25S14.5,6,25,6  s19,8.5,19,19S35.5,44,25,44z" fill="#01AEF2"/></svg>